<svg xmlns="http://www.w3.org/2000/svg" viewBox="0 0 34.5 34.5"><defs><style>.cls-1{fill:none;stroke:#28b5c1;stroke-miterlimit:10;stroke-width:2.5px;}.cls-2{fill:#28b5c1;}</style></defs><title>acao</title><g id="Layer_2" data-name="Layer 2"><g id="AÇÃO"><circle class="cls-1" cx="17.25" cy="17.25" r="16"/><path class="cls-2" d="M8.61,15.89a.29.29,0,0,1,.25-.14,1.33,1.33,0,0,0,.54-.24,1,1,0,0,0,.32-.46c0-.14.12-.42.14-.51s.14-.35.14-.37v-.09l-.12-.33a3,3,0,0,1-.11-.47c0-.13.07-.2.16-.27s.25,0,.33.06a.86.86,0,0,0,.36.08A.55.55,0,0,0,11,13a1.9,1.9,0,0,1,.24-.14s.07,0,.11,0l0,0,.12-.07a1.58,1.58,0,0,1,.28,0,2.79,2.79,0,0,1,.14-.37l0,0h.2s0,0,.07,0a.08.08,0,0,1,0,.06l.16.4,4.18,0a.3.3,0,0,1,0,.09.3.3,0,0,0,.05.1l8.43,0c.06,0,.07,0,.09-.11s0-.12,0-.12h.14a2.16,2.16,0,0,1,.1-.25s0-.05,0-.05a1.36,1.36,0,0,1,.44.07.65.65,0,0,1,.35.32.67.67,0,0,1,.06.16h.51c.05,0,.07,0,.12.07a1,1,0,0,1,.09.51,1.65,1.65,0,0,1-.13.7.1.1,0,0,1-.08.05l-.43,0a1,1,0,0,1,0,.16l-.06,0s0,.05,0,.3,0,.74-.07.93a.76.76,0,0,1-.09.26l-1.27,0a1.32,1.32,0,0,1,0,.13.18.18,0,0,1-.07.1H21.45a3.05,3.05,0,0,0-1.65.46,1.72,1.72,0,0,0-.63.95,4.47,4.47,0,0,0,0,.72V19c0,.05-.07.1-.19.16a7.26,7.26,0,0,1-.93.31,4.39,4.39,0,0,1-1.37.2,3.68,3.68,0,0,1-1.14-.18,1.86,1.86,0,0,0-.62-.05,1.09,1.09,0,0,0-.56.35,3.41,3.41,0,0,0-.39,1c-.1.35-.36,1.34-.43,1.74a5.52,5.52,0,0,0-.09.91c0,.21,0,.67,0,.67s0,0,0,.07v.4c0,.07,0,.09,0,.13s0,.07-.17.1a1.87,1.87,0,0,1-.49.07c-.18,0-2.45-.14-2.55-.15a.4.4,0,0,1-.25-.06,2.56,2.56,0,0,1-.14-.31h-.1a1.41,1.41,0,0,1-.07.15.43.43,0,0,1-.35.18.56.56,0,0,1-.43-.19.7.7,0,0,1-.07-.32l-.05,0a.41.41,0,0,1-.09-.2,3.73,3.73,0,0,1-.1-.79,3.88,3.88,0,0,1,.1-1c.13-.48.37-1,.6-1.63s.6-1.64.72-2a3.41,3.41,0,0,0,.21-.67,1.53,1.53,0,0,0-.16-.79,1.34,1.34,0,0,0-.65-.56,2.82,2.82,0,0,0-.65-.11.38.38,0,0,1-.26-.17A2.58,2.58,0,0,0,8.61,15.89Zm6.13,2.37a1.21,1.21,0,0,0,.92.76,4.7,4.7,0,0,0,2.17,0,1.33,1.33,0,0,0,.93-.59.74.74,0,0,0,.09-.65,1.17,1.17,0,0,0-.37-.56,2,2,0,0,0-.35-.29H16.71a1.38,1.38,0,0,0-.07.64,1.62,1.62,0,0,0,.47.88c.2.14.37.21.41.26s.07.16,0,.19a.58.58,0,0,1-.38,0,1.5,1.5,0,0,1-.6-.44,3.86,3.86,0,0,1-.28-.49.6.6,0,0,0-.16-.16s-.05,0-.05-.11,0-.51,0-.51L15.78,17a1.79,1.79,0,0,0-.3,0,1.93,1.93,0,0,0-.44.27c-.12.1-.37.31-.39.47A1.43,1.43,0,0,0,14.74,18.26Z"/></g></g></svg>