<svg xmlns="http://www.w3.org/2000/svg" viewBox="0 0 34.5 34.5"><defs><style>.cls-1{fill:#28b5c1;}.cls-2{fill:none;stroke:#28b5c1;stroke-miterlimit:10;stroke-width:2.5px;}</style></defs><title>animacao</title><g id="Layer_2" data-name="Layer 2"><g id="ANIMAÇÃO"><path class="cls-1" d="M22.47,8.77c2.42,3.92-1.82,10.6-5.24,10.59s-7.6-6.68-5.17-10.59a6.23,6.23,0,0,1,10.41,0Z"/><path class="cls-1" d="M17.82,20.31c.16-.11-.16-1-.59-1s-.77.89-.61,1,.25-.13.61-.12S17.74,20.37,17.82,20.31Z"/><path class="cls-1" d="M17.46,19.58c3,1-.81,5-1.34,6.07a3.53,3.53,0,0,0-.11,3c.1.28.54.16.44-.12-1-2.64,2.06-4.51,2.45-7,.19-1.25-.12-1.93-1.32-2.34-.28-.1-.39.35-.12.44Z"/><circle class="cls-2" cx="17.25" cy="17.25" r="16"/></g></g></svg>