<svg xmlns="http://www.w3.org/2000/svg" viewBox="0 0 26.318 24.134">
  <defs>
    <style>
      .cls-1, .cls-2 {
        fill: none;
        stroke: #30d0dd;
        stroke-miterlimit: 10;
        stroke-width: 2px;
      }

      .cls-2 {
        stroke-linecap: round;
        stroke-linejoin: round;
      }
    </style>
  </defs>
  <g id="Group_313" data-name="Group 313" transform="translate(0.021 0.021)">
    <path id="Path_3266" data-name="Path 3266" class="cls-1" d="M9.293,42.607c-.05-.017-.1-.05-.15-.067-.083-.033-.166-.083-.266-.133-.05-.017-.083-.05-.133-.067a1.663,1.663,0,0,1-.233-.133c-.033-.017-.05-.033-.083-.05-.1-.067-.2-.133-.316-.2-.033-.017-.05-.033-.083-.05-.117-.067-.216-.15-.333-.216a7.061,7.061,0,0,1-2.463-3.062c-.1-.233-.183-.466-.266-.7A1.226,1.226,0,0,1,4.9,37.7a4.766,4.766,0,0,1-.117-.466c-.017-.083-.033-.15-.05-.233-.033-.15-.05-.316-.083-.466-.017-.15-.033-.316-.05-.466-.017-.233-.033-.466-.033-.682s0-.449.017-.666h0c.017-.216.033-.433.067-.666,0-.05.017-.1.017-.166.033-.233.05-.449.083-.682V33.17c.033-.233.067-.466.117-.7,0-.05.017-.083.017-.133l.15-.749v-.017c.05-.25.117-.5.166-.749a.721.721,0,0,1,.017-.083c.133-.533.283-1.065.433-1.6,0-.017,0-.033.017-.033.083-.266.166-.549.266-.816.233-1.531.067-2.846-1.1-3.112-.949-.216-1.448,1.1-1.881,2.114A27.465,27.465,0,0,0,1,35.184a7.269,7.269,0,0,0,2.913,6.507A5.923,5.923,0,0,0,9.609,42.74a1.727,1.727,0,0,0-.166-.067A.591.591,0,0,0,9.293,42.607Z" transform="translate(0 -20.044)"/>
    <path id="Path_3267" data-name="Path 3267" class="cls-2" d="M42.522,13.826A1.833,1.833,0,0,0,42.6,11.4a1.7,1.7,0,0,0-2.513-.083L36.63,14.774l3.462-3.462,2.48-2.48a1.623,1.623,0,0,0,.083-2.347,1.9,1.9,0,0,0-1.981-.466.364.364,0,0,0-.083.05l-5.742,5.775,5.742-5.758h0l1.232-1.232a1.821,1.821,0,0,0,.366-2.347c-.6-.749-1.614-1.2-2.962.133L32.4,9.465l5.259-5.426a1.708,1.708,0,0,0,.117-2.447,1.774,1.774,0,0,0-2.48.05L27.809,9.265a.23.23,0,0,1-.067.05.2.2,0,0,1-.25-.05.189.189,0,0,1-.05-.133V9.049h0c.033-.133.067-.25.1-.383V8.633a2.9,2.9,0,0,0,.083-.366.061.061,0,0,1,.017-.05,2.584,2.584,0,0,0,.067-.35.061.061,0,0,1,.017-.05c.017-.116.05-.233.067-.35a.061.061,0,0,1,.017-.05l.05-.35v-.05a2.5,2.5,0,0,0,.033-.333V6.652a2.344,2.344,0,0,0,.017-.333V5.97c-.033-1.032-.383-1.814-1.282-2.03C25.612,3.707,25.08,5.121,24.614,6.2c-.266.666-.516,1.348-.749,2.03h0c-.083.266-.183.549-.266.816,0,.017,0,.033-.017.033-.166.533-.3,1.065-.433,1.6a.721.721,0,0,1-.017.083c-.067.25-.117.5-.166.749v.017l-.15.749a.414.414,0,0,0-.017.133c-.033.233-.083.466-.116.7v.033c-.033.233-.067.466-.083.682,0,.05-.017.1-.017.166-.017.233-.05.449-.067.666h0c-.017.216-.017.433-.017.666s.017.449.033.682c.017.15.033.316.05.466a4.561,4.561,0,0,0,.083.466c.017.083.033.15.05.233.033.15.083.316.117.466.017.083.05.15.067.233.083.233.166.466.266.7a7.182,7.182,0,0,0,2.463,3.062,3.767,3.767,0,0,0,.333.216c.033.017.05.033.083.05.1.067.216.133.316.2.033.017.05.033.083.05.083.05.15.083.233.133.05.017.083.05.133.067.083.05.183.083.266.133.05.017.1.05.15.067s.1.05.15.067a1.727,1.727,0,0,0,.166.067h0a5.967,5.967,0,0,0,1.914.433h.549c2.13-.1,4.078-1.415,6.158-3.129C37.229,19.1,41.623,14.741,42.522,13.826Z" transform="translate(-17.933)"/>
  </g>
</svg>
