<svg xmlns="http://www.w3.org/2000/svg" viewBox="0 0 34.5 34.5"><defs><style>.cls-1,.cls-3{fill:none;stroke:#28b5c1;stroke-miterlimit:10;}.cls-1{stroke-width:0.56px;}.cls-2{fill:#28b5c1;}.cls-3{stroke-width:2.5px;}</style></defs><title>aventura</title><g id="Layer_2" data-name="Layer 2"><g id="AVENTURA"><polygon class="cls-1" points="17.57 7.84 15.48 15.38 8.01 17.48 15.34 19.85 17.43 27.25 19.81 19.64 27.14 17.55 19.88 15.38 17.57 7.84"/><line class="cls-1" x1="17.64" y1="8.33" x2="17.5" y2="26.27"/><line class="cls-1" x1="8.78" y1="17.41" x2="26.86" y2="17.48"/><line class="cls-1" x1="15.48" y1="15.38" x2="19.81" y2="19.64"/><line class="cls-1" x1="19.88" y1="15.38" x2="15.34" y2="19.85"/><path class="cls-2" d="M19.43,14.92c-.05-.13-.1-.25-.16-.37a.84.84,0,0,0-1.44,0,.68.68,0,0,0-.14.23l1.53.64,0-.09L19,15.7l-.13.07c1.06-.22.61-1.84-.44-1.61a1.12,1.12,0,0,0-.86.82.84.84,0,0,0,1.53.64.8.8,0,0,1,.13-.22H17.83l0,0c.35,1,2,.58,1.62-.44Z"/><path class="cls-2" d="M18.47,11.84c0-.16-.09-.32-.14-.48a.21.21,0,0,0-.41.06c0,.41,0,.82,0,1.22,0,.23.37.3.41.06a6.75,6.75,0,0,0,0-1.1c0-.23-.37-.3-.42-.06a3.72,3.72,0,0,0,0,1.2c0,.24.41.17.42-.06a4,4,0,0,0-.11-1.43.21.21,0,0,0-.41.06,3.86,3.86,0,0,0,0,.68c0,.23.36.29.41,0a3.87,3.87,0,0,0,0-1.4c0-.26-.42-.27-.42,0V11h.42a7.2,7.2,0,0,1,0-.81.21.21,0,0,0-.41,0,2.59,2.59,0,0,0,0,.62l.4-.11a5.49,5.49,0,0,0-.17-.7c-.09-.25-.48-.15-.41.11a10.91,10.91,0,0,0,.45,1.79c.08.2.39.09.39-.1a4.25,4.25,0,0,0-.06-.8.21.21,0,0,0-.4,0,4,4,0,0,0,.33,2.17.21.21,0,0,0,.4-.11c-.07-.31-.13-.62-.19-.93a.21.21,0,0,0-.4,0,3.28,3.28,0,0,0,.18,1.61c.07.22.44.19.42-.05a8,8,0,0,0-.25-1.18.21.21,0,0,0-.41.06,5.28,5.28,0,0,0,.36,2c.08.19.41.09.39-.11a3.76,3.76,0,0,0-.4-1.62c-.1-.2-.37-.09-.39.1A10.33,10.33,0,0,1,18,14.67l.41.05c-.05-.61-.07-1.22-.08-1.84a.21.21,0,0,0-.42,0,6.19,6.19,0,0,0,0,1.61.22.22,0,0,0,.42-.06c0-.57-.06-1.14-.11-1.71,0-.22-.37-.31-.41-.06a10.5,10.5,0,0,0,0,2.17.21.21,0,0,0,.41,0c0-.85,0-1.7,0-2.55a.21.21,0,0,0-.42,0v2.28h.42c0-1.12.16-2.27,0-3.38l-.39.11c.34.71.36,1.5.67,2.22a.21.21,0,0,0,.38,0,2.5,2.5,0,0,0-.28-1.63c-.12-.22-.43-.06-.39.16a9.59,9.59,0,0,0,.5,1.91c.1.23.42.06.38-.16a4.11,4.11,0,0,0-.41-1.24.21.21,0,0,0-.39.16,8.09,8.09,0,0,0,.58,1.74.21.21,0,0,0,.38-.16,3,3,0,0,0-.17-.72c-.07-.17-.36-.22-.4,0a1.63,1.63,0,0,0,.23,1.05.21.21,0,0,0,.39-.11,2,2,0,0,0-.11-.76.21.21,0,0,0-.41.05,1.65,1.65,0,0,0,.3,1,.21.21,0,0,0,.39-.1,1.28,1.28,0,0,0-.11-.64c-.08-.26-.49-.15-.4.11a1.16,1.16,0,0,1,.09.53l.39-.11a1.2,1.2,0,0,1-.24-.75l-.41.06a1.22,1.22,0,0,1,.09.65l.39-.1a1.25,1.25,0,0,1-.19-.73h-.4a3.59,3.59,0,0,1,.17.72l.38-.16a7.85,7.85,0,0,1-.53-1.64l-.39.16a3.65,3.65,0,0,1,.38,1.14l.38-.16a9.4,9.4,0,0,1-.45-1.81l-.38.16a2.06,2.06,0,0,1,.24,1.31l.38,0c-.31-.72-.33-1.51-.67-2.22-.09-.18-.41-.1-.39.1.12,1.1-.05,2.27,0,3.38a.21.21,0,0,0,.42,0V12.28h-.42c0,.85,0,1.7,0,2.55h.41a10.91,10.91,0,0,1,0-2.06l-.41,0c0,.57.09,1.14.11,1.71l.41,0a5.39,5.39,0,0,1,0-1.5h-.42c0,.62,0,1.23.08,1.84a.21.21,0,0,0,.41.06,11.67,11.67,0,0,0,.11-1.87l-.39.11a3.25,3.25,0,0,1,.34,1.41l.39-.11a4.9,4.9,0,0,1-.3-1.74l-.42.05a7.87,7.87,0,0,1,.24,1.07l.41-.06a2.77,2.77,0,0,1-.19-1.39h-.4c.05.31.12.62.19.93l.4-.11a3.74,3.74,0,0,1-.33-2h-.4a4,4,0,0,1,0,.69l.39-.11a9.67,9.67,0,0,1-.4-1.69l-.41.11a6,6,0,0,1,.18.7c.05.27.44.15.4-.11l0-.51h-.41a5.44,5.44,0,0,0,0,.81c0,.26.42.28.42,0v-.37h-.42a3.5,3.5,0,0,1,0,1.29l.41.06a3.86,3.86,0,0,1,0-.68l-.41,0A3.69,3.69,0,0,1,18,12.68l.41,0a2.27,2.27,0,0,1,0-1L18,11.6a6.55,6.55,0,0,1,0,1l.41.05c0-.4,0-.81,0-1.22l-.41.06c.05.15.1.31.14.47a.21.21,0,0,0,.4-.11Z"/><path class="cls-2" d="M19.3,15.41a1.94,1.94,0,0,0,.33.07l-.09-.35c-.5.43-.93.94-1.42,1.38l.33.26a1.78,1.78,0,0,0,.26-.62.21.21,0,0,0-.35-.2,3.19,3.19,0,0,0-.39.57l.39.17a2.85,2.85,0,0,1,.14-.5c.09-.23-.27-.37-.38-.17s-.17.39-.27.57l.39.11c0-.31.09-.6.1-.91a.21.21,0,0,0-.41-.06,3.78,3.78,0,0,0-.08.89.21.21,0,0,0,.42,0,2,2,0,0,0-.08-.84c-.08-.2-.42-.19-.41.06s0,.64.07,1,.42.27.42,0v-.12h-.42v.22h.42a2.8,2.8,0,0,1,0-.29l-.41.05,0,.14a.21.21,0,0,0,.41,0,.53.53,0,0,0,0-.25.21.21,0,0,0-.41.06v.29a.21.21,0,0,0,.42,0v-.22a.21.21,0,0,0-.42,0v.12h.42c0-.33-.06-.65-.07-1l-.41.05a1.8,1.8,0,0,1,.06.73h.42a3.38,3.38,0,0,1,.06-.78l-.41-.05c0,.31-.1.6-.1.91s.3.3.39.11.17-.39.27-.57l-.38-.17a3.17,3.17,0,0,0-.15.5c0,.23.26.38.38.17a2.11,2.11,0,0,1,.33-.49L18.31,16a1.6,1.6,0,0,1-.22.52c-.14.2.16.4.33.25.49-.44.92-.95,1.42-1.39a.21.21,0,0,0-.1-.35L19.41,15a.21.21,0,0,0-.11.4Z"/><path class="cls-2" d="M19,18a2.27,2.27,0,0,0-.57-.26l0,.41c1.16,0,2.31,0,3.47-.07a19.86,19.86,0,0,1,3.44-.15v-.41c-.9.34-1.84.54-2.75.88-.41.16-.83.3-1.25.43s-2-.05-.77-.06a.21.21,0,0,0,.05-.41,4.39,4.39,0,0,0-1.31-.11v.42a5.38,5.38,0,0,0,.69-.07.21.21,0,0,0,0-.42,2.72,2.72,0,0,0-.7,0l.06.41.5-.15a.21.21,0,0,0-.05-.41,3.07,3.07,0,0,0-.74.1.21.21,0,0,0-.09.35,1.91,1.91,0,0,0,.41.33c.22.14.43-.22.21-.37l-.15-.1-.05.39A6.79,6.79,0,0,1,21,18.38c.26,0,.27-.44,0-.42a6.5,6.5,0,0,0-1.09.15.21.21,0,0,0,.05.41,15.74,15.74,0,0,0,1.93-.18l-.06-.41-1.44.49c-.25.09-.15.48.11.41s.79-.25,1.2-.33l-.11-.41-1.41.54c-.24.1-.15.48.11.41a8.29,8.29,0,0,0,.85-.25L21,18.41c-.25.19-.36.37-.4.38s-.18-.13-.27-.12c-.3.06-.57,0-.73.31a.22.22,0,0,0,0,.21l.09.13.32-.26a.66.66,0,0,0-.35-.21l-.11.4a1.18,1.18,0,0,0,.67,0c.2,0,.18-.29,0-.38a1.19,1.19,0,0,0-.57-.29V19c.9-.21,1.8-.41,2.72-.54.24,0,.16-.4-.06-.41a2,2,0,0,0-.81.05.22.22,0,0,0,.06.42,5.42,5.42,0,0,0,1.27-.19l-.11-.41-1.12.32c-.21.06-.18.44.06.41s.38-.05.64-.1l-.11-.41c-.53.22-1.06.34-1.57.61a.21.21,0,0,0,.11.39,10.81,10.81,0,0,0,3-.95.21.21,0,0,0-.11-.4l-1,.2.11.41.56-.18a.21.21,0,0,0-.12-.4c-.26.07-.53.15-.79.24s-.19.44.06.41a5.7,5.7,0,0,0,.91-.13c.27-.06.15-.44-.11-.41l-.44.07c-.26,0-.15.44.11.4l.44-.06-.11-.41-.8.12.06.42a6.61,6.61,0,0,1,.79-.25l-.12-.4-.55.17a.21.21,0,0,0,.11.41q.51-.12,1-.21l-.11-.4a11.6,11.6,0,0,1-2.91.93l.1.39c.47-.25,1-.36,1.47-.56a.21.21,0,0,0-.11-.41l-.53.09.05.42,1.12-.32a.21.21,0,0,0-.11-.41,3.24,3.24,0,0,1-1.16.18l.05.41.7,0-.06-.41c-.91.13-1.81.32-2.71.54a.21.21,0,0,0,0,.4l.47.25,0-.38-.45,0a.21.21,0,0,0-.11.4l.17.11c.16.16.47-.05.33-.25h.22a.21.21,0,0,0,.31.12c.22-.14.43-.29.64-.45s.08-.46-.17-.38a7.41,7.41,0,0,1-.84.24l.11.41,1.41-.54a.21.21,0,0,0-.11-.41c-.41.09-.8.22-1.2.33l.11.41,1.44-.49c.21-.08.2-.45-.05-.42A15.74,15.74,0,0,1,20,18.1l.06.41a6.41,6.41,0,0,1,1-.13V18a7.12,7.12,0,0,0-1.79.29.22.22,0,0,0-.05.39l.15.1.21-.37-.32-.26-.1.35.63-.08L19.67,18l-.5.14a.22.22,0,0,0,0,.42,2.72,2.72,0,0,1,.7,0v-.42a5.38,5.38,0,0,1-.69.07c-.27,0-.27.43,0,.42a3.47,3.47,0,0,1,1.2.09l.06-.41a7.33,7.33,0,0,0-1.48.11.22.22,0,0,0-.12.31c.59.86,1.13.87,2.08.58,1.46-.44,3-.89,4.4-1.42.17-.07.22-.37,0-.41a16.12,16.12,0,0,0-3,.13c-1.33.05-2.67.07-4,.08a.22.22,0,0,0-.06.42l.47.21c.23.14.44-.23.21-.36Z"/><path class="cls-2" d="M16.81,19.49a12.74,12.74,0,0,1,.07,1.75c0,.22.38.3.41.05a7.26,7.26,0,0,0,0-1.4.21.21,0,0,0-.42,0A7,7,0,0,0,17,21.82c0,.24.41.17.41-.06a8.16,8.16,0,0,0-.25-2,.21.21,0,0,0-.41.05v0l.41,0,.18-1-.39-.1a2.1,2.1,0,0,1,0,.79l.41-.06v-.67L17,18.67c.06.4.06.77.14,1.16a.21.21,0,0,0,.41,0,12.89,12.89,0,0,0-.07-1.52c0-.26-.44-.27-.42,0a3.72,3.72,0,0,1-.71,1.94l.39.11A1.91,1.91,0,0,1,17,19.23l-.39-.16a4.93,4.93,0,0,1-.57,1.15l.39.1a2.79,2.79,0,0,1,.26-1l-.4-.12a2.05,2.05,0,0,1-.42.88l.39.16a2.36,2.36,0,0,1,.12-.51c.07-.2-.2-.34-.35-.2l-.31.3.35.2,0-.16a.21.21,0,0,0-.35-.2l-.21.2a.21.21,0,0,0,0,.3c.28.22.39.77.59,1.09s.46.07.38-.16a7.17,7.17,0,0,0-.45-1,.21.21,0,0,0-.38.16,12.63,12.63,0,0,0,.67,1.87c.1.23.42.05.38-.16a6.34,6.34,0,0,0-.32-1.3.21.21,0,0,0-.4.11,11.44,11.44,0,0,0,.6,2.37.21.21,0,0,0,.41-.06,6.08,6.08,0,0,0-.41-1.82c-.06-.21-.44-.19-.41.06A11.67,11.67,0,0,0,16.82,24c.07.21.44.2.41-.05a7.16,7.16,0,0,0-.37-1.84.22.22,0,0,0-.42.06,6.52,6.52,0,0,0,.41,2.17c.07.2.44.19.41-.06a8.29,8.29,0,0,0-.15-1c-.05-.23-.44-.18-.41.06a9.41,9.41,0,0,0,.45,1.94.21.21,0,0,0,.41-.11q-.12-.43-.21-.87a.21.21,0,0,0-.41,0A2.44,2.44,0,0,0,17,25l.41-.11c-.25-.69-.48-1.38-.8-2.05,0,0-.36-.8-.49-.7a4.53,4.53,0,0,0,.21.73.21.21,0,0,0,.41-.12c-.12-.41-.22-.84-.35-1.25a.21.21,0,0,0-.41.11,7.73,7.73,0,0,0,.23.95.21.21,0,0,0,.41-.06,3.93,3.93,0,0,0,0-.84l-.41.05c.11.32.19.64.32.95a.21.21,0,0,0,.41-.06,10.27,10.27,0,0,0,0-1.92c0-.24-.44-.18-.42,0a20.38,20.38,0,0,0,.37,2.7c0,.23.43.18.41-.05,0-.61-.08-1.21-.07-1.82l-.41.05A6.59,6.59,0,0,1,17,23.31a.21.21,0,0,0,.42,0V22.4a.21.21,0,0,0-.42,0v1.09h.42c0-.52-.07-1-.15-1.56,0-.23-.41-.17-.41.06a9.58,9.58,0,0,0,.25,2.2.21.21,0,0,0,.41-.05c0-.58-.07-1.15-.1-1.73,0-.22-.37-.3-.41-.05l0,.28.38-.05c-.4-.75-.11-1.66-.4-2.45a.22.22,0,0,0-.41,0,3.58,3.58,0,0,0-.17,1.42c0,.23.37.3.41.06.08-.51.16-1,.23-1.53H16.6c0,.32-.08.65-.11,1s.39.26.41,0,.08-.68.11-1-.34-.27-.41-.06-.18.55-.25.83l.41.06a1.7,1.7,0,0,1,0-.55c0-.23-.38-.29-.42-.06l-.07.47c0,.26.37.37.41.11l.07-.46-.41-.06a2,2,0,0,0,0,.55c0,.22.34.3.41.06A8.11,8.11,0,0,1,17,20.1l-.41-.05c0,.34-.06.68-.1,1h.41c0-.33.07-.66.12-1s-.39-.27-.42,0c-.06.47-.13.95-.21,1.42l.41,0A3.09,3.09,0,0,1,17,20.25h-.41c.32.84,0,1.75.45,2.56.08.14.36.13.38,0l.05-.29L17,22.41c0,.58.1,1.15.09,1.73l.41-.06A9.17,9.17,0,0,1,17.29,22l-.41.06c.06.48.11,1,.13,1.44a.21.21,0,0,0,.42,0V22.4H17v.91h.42a7.45,7.45,0,0,0-.24-1.82.22.22,0,0,0-.42.06c0,.61,0,1.21.07,1.82l.41-.06a22.39,22.39,0,0,1-.35-2.59l-.41.06a9.14,9.14,0,0,1,0,1.81l.41-.05c-.13-.31-.2-.63-.31-.95s-.43-.19-.41.06a4.71,4.71,0,0,1,0,.84l.41,0a6.23,6.23,0,0,1-.22-1L16,21.6c.13.42.23.84.35,1.26l.41-.12c-.18-.57-.25-1.37-.87-1.62a.21.21,0,0,0-.27.2c.1,1.25,1,2.49,1.4,3.67a.21.21,0,0,0,.41-.11l-.07-.55-.41.06c.06.29.13.58.2.87l.41-.11a8.28,8.28,0,0,1-.44-1.83l-.41.05.13.87.41-.06a6.26,6.26,0,0,1-.39-2.05l-.41.05a6.74,6.74,0,0,1,.36,1.73l.41-.06a11.49,11.49,0,0,1-.57-2.57l-.41,0A6,6,0,0,1,16.63,23L17,23a12.11,12.11,0,0,1-.6-2.37l-.4.11a7.26,7.26,0,0,1,.32,1.3l.38-.16a11.68,11.68,0,0,1-.63-1.77l-.38.16a4.46,4.46,0,0,1,.41.92l.38-.16c-.18-.29-.24-.63-.42-.9s-.19,0,0-.18l-.35-.21,0,.16a.21.21,0,0,0,.35.2l.31-.29L16,19.59a1.91,1.91,0,0,0-.13.51.21.21,0,0,0,.39.16,3.56,3.56,0,0,0,.45-1c.09-.26-.31-.36-.4-.12A3.65,3.65,0,0,0,16,20.32a.21.21,0,0,0,.39.11A6.61,6.61,0,0,0,17,19.18c.08-.22-.27-.36-.39-.16a2.76,2.76,0,0,0-.37,1.29.21.21,0,0,0,.39.11,3.93,3.93,0,0,0,.76-2.16H17a11.05,11.05,0,0,1,.07,1.52l.42-.06c0-.35-.08-.7-.13-1s-.35-.31-.41-.06a2.15,2.15,0,0,0,0,.91c.05.25.38.15.41-.06a2.1,2.1,0,0,0,0-.79.21.21,0,0,0-.39-.11,1.56,1.56,0,0,0-.22,1.33c0,.23.42.17.41-.06v0l-.41.06A8.18,8.18,0,0,1,17,21.76l.41-.05a6.55,6.55,0,0,1-.09-1.82h-.42a7.94,7.94,0,0,1,0,1.29l.41.06a14.39,14.39,0,0,0-.08-1.86c0-.27-.45-.16-.41.11Z"/><path class="cls-2" d="M17,19.22a.58.58,0,0,1,.08-.22c.08-.17-.09-.41-.29-.28a3.9,3.9,0,0,0-.46.45l.33.25a2.19,2.19,0,0,1,.27-.35l-.33-.25a2.86,2.86,0,0,1-.48.66l.33.26a2.47,2.47,0,0,1,.48-.68l-.3-.29a4.57,4.57,0,0,1-.64.68l.26.33c.24-.19.4-.47.64-.66s0-.52-.21-.36-.46.51-.73.72.06.47.25.33a4.71,4.71,0,0,0,.73-.75.21.21,0,0,0-.3-.29,2.76,2.76,0,0,0-.54.76.21.21,0,0,0,.33.25,3.33,3.33,0,0,0,.54-.75c.12-.2-.17-.44-.33-.25a2.73,2.73,0,0,0-.33.43.21.21,0,0,0,.32.26,2.4,2.4,0,0,1,.39-.39l-.29-.29c-.1.23-.23.42-.08.64s.52,0,.36-.21Z"/><path class="cls-2" d="M22.48,18.24a3.25,3.25,0,0,1,.87-.21l-.05-.41-1.45.46a.21.21,0,0,0,.06.41,4.18,4.18,0,0,0,1.34-.29,5.94,5.94,0,0,1,1.58-.27l-.06-.41c-.3.1-.59.25-.89.35a.21.21,0,0,0,.11.4,5.63,5.63,0,0,1,.68-.17l-.11-.41c-.4.16-.81.25-1.19.44-.19.08-.1.4.1.39a2.47,2.47,0,0,0,.54-.11A.21.21,0,0,0,23.9,18a7.76,7.76,0,0,0-.82.25l.16.38.09-.07c.22-.15,0-.51-.21-.36l-.09.07c-.19.12-.08.47.16.38a7.71,7.71,0,0,1,.82-.24L23.9,18a1.28,1.28,0,0,1-.43.1l.11.39c.35-.17.73-.25,1.09-.39a.21.21,0,0,0-.11-.41,4.84,4.84,0,0,0-.68.18l.11.4c.31-.09.59-.24.89-.35s.2-.42-.05-.41a6.36,6.36,0,0,0-1.31.18,7.1,7.1,0,0,1-1.61.38l.05.41c.49-.15,1-.29,1.45-.45.21-.07.19-.43-.06-.41a3.73,3.73,0,0,0-1,.21c-.26.08-.15.49.11.41Z"/><path class="cls-2" d="M10.68,17.43a21.17,21.17,0,0,1,3.26-.77l-.12-.4c-.52.16-1.05.33-1.56.52-.21.07-.2.43.05.41a3.7,3.7,0,0,0,1-.24.21.21,0,0,0-.11-.4,17.45,17.45,0,0,0-1.76.45c-.22.06-.19.42.05.41l.68,0a.21.21,0,0,0,0-.42,3.78,3.78,0,0,0-1.49.19c-.25.09-.15.48.11.4l.13,0a.21.21,0,0,0-.11-.4,2.43,2.43,0,0,0-.66.14c-.22.06-.19.44.06.41,1.56-.16,3.15-.24,4.71-.46.23,0,.17-.41-.06-.41A8.24,8.24,0,0,0,13.2,17a.21.21,0,0,0,.05.41A31.19,31.19,0,0,0,17,17.2c.22,0,.31-.35.06-.41-.8-.22-1.1-1.25-1.9-1.27a1.7,1.7,0,0,0-.61.21,17.26,17.26,0,0,1-2,.78.21.21,0,0,0,.06.41,5,5,0,0,0,1.7-.4c.24-.1.15-.49-.11-.41l-1.18.4c-.21.07-.2.44.05.41a10.31,10.31,0,0,0,1.83-.41c.25-.09.14-.49-.12-.41a5.49,5.49,0,0,0-1.6.67.22.22,0,0,0,.17.39,8.05,8.05,0,0,0,1.78-.52.21.21,0,0,0-.12-.41,10.77,10.77,0,0,0-1.07.31A.21.21,0,0,0,14,17c.52,0,.6-.06,1.21-.14l-.1-.39c-.34.16-.67.31-1,.45-.19.08-.09.41.11.39.39,0,.93-.13,1.29-.17l-.05-.41a3.11,3.11,0,0,0-.78.26c-.2.08-.2.42.06.41A4.17,4.17,0,0,0,16.21,17a.21.21,0,0,0,.05-.38,2,2,0,0,0-1-.39c-.18,0-.38.2-.2.35a2.57,2.57,0,0,0,.73.48c.17.09.41-.1.28-.29a.94.94,0,0,0-.51-.49.23.23,0,0,0-.26,0l0,0a.23.23,0,0,0,0,.3.71.71,0,0,0,.52.22c.17,0,.34-.13.24-.31a1.05,1.05,0,0,0-.77-.55.22.22,0,0,0-.26.26l0,.19a.22.22,0,0,0,.26.15l.11,0a.22.22,0,0,0,.15-.2l0-.14a.22.22,0,0,0-.11-.18L15.23,16a.2.2,0,0,0-.3.13l0,.19a.21.21,0,0,0,.15.25c.24.09.27.06.51-.06a.21.21,0,0,0,0-.33l-.2-.24a.21.21,0,0,0-.26,0l-.32.17c-.22.12-.06.43.16.39l.39-.08a.22.22,0,0,0,.05-.39c-.36-.21-.68,0-1,.17a.21.21,0,0,0,.1.39,4.19,4.19,0,0,0,1-.09l-.21-.35c-.25.23-.27.24-.27.58a.22.22,0,0,0,.32.18c.32-.17.25-.1.47-.38a.21.21,0,0,0-.14-.35c-.44,0-.68.07-.77.5a.22.22,0,0,0,.09.24c.33.23.65.05,1-.16a.21.21,0,0,0,0-.36c-.43-.2-1.24-.45-1.21.28a.24.24,0,0,0,.16.2.72.72,0,0,0,.81-.26.21.21,0,0,0-.2-.35,1,1,0,0,0-.64.21.21.21,0,0,0,0,.36c.21.14.25.13.51.08a.2.2,0,0,0,.12-.3c-.17-.27-.18-.28-.5-.29a.21.21,0,0,0,0,.42l.08-.27v.36l.54-.17-.2-.35c-.08.28,0,.43.32.44v-.36c-.2.06-.22.12-.07.19l-.15-.35-.39.31.31.18.15-.29c.16-.14,0-.39-.2-.35a2.45,2.45,0,0,1-.89.08l.11.39a.83.83,0,0,1,.6-.16l.05-.39-.39.08.16.39.37-.2-.25.26.51.35.24-.3-.18.51.29-.28-.64-.42-.21.35a1.76,1.76,0,0,1,.9.35l.05-.38a3.73,3.73,0,0,1-1.37.29l0,.41a3.09,3.09,0,0,1,.78-.25c.22-.06.18-.44-.06-.42-.49,0-.76.11-1.29.17l.1.39c.34-.14.68-.29,1-.45.18-.09.1-.42-.11-.39-.39.05-.83.11-1.21.14l.05.41a10.17,10.17,0,0,1,1.08-.3L15,16.23a7.75,7.75,0,0,1-1.78.52l.17.39a4.74,4.74,0,0,1,1.5-.63l-.12-.41a8.34,8.34,0,0,1-1.71.4l.06.41,1.18-.39-.11-.41a4.18,4.18,0,0,1-1.59.39l.05.41c.65-.2,2.25-1.1,2.89-.69.11.08.3.43.42.53a2.43,2.43,0,0,0,1,.44l.05-.41a31.19,31.19,0,0,1-3.75.17l.06.41a7.87,7.87,0,0,1,1.53-.16l-.05-.41c-1.51.21-3.09.29-4.6.44l.05.42a2.53,2.53,0,0,1,.66-.15l-.11-.4-.13,0,.11.4a3.59,3.59,0,0,1,1.38-.17V17l-.68,0,.06.41c.58-.18,1.17-.32,1.76-.45l-.11-.4a2.93,2.93,0,0,1-.87.22l.06.41c.51-.19,1-.35,1.57-.52a.21.21,0,0,0-.12-.4,20,20,0,0,0-3.25.77c-.25.1-.14.5.11.4Z"/><polygon class="cls-1" points="13.94 15.77 12.16 12 15.51 13.85 15.34 15.1 13.94 15.77"/><polygon class="cls-1" points="19.35 14.07 23.14 12.34 21.25 15.66 20 15.47 19.35 14.07"/><polygon class="cls-1" points="16.03 21.13 12.31 23 14.07 19.61 15.33 19.75 16.03 21.13"/><polygon class="cls-1" points="21.07 19.05 22.98 22.76 19.56 21.02 19.7 19.76 21.07 19.05"/><circle class="cls-3" cx="17.25" cy="17.25" r="16"/></g></g></svg>