<svg xmlns="http://www.w3.org/2000/svg" viewBox="0 0 34.5 34.5"><defs><style>.cls-1{fill:#28b5c1;}.cls-2{fill:none;stroke:#28b5c1;stroke-miterlimit:10;stroke-width:2.5px;}</style></defs><title>curta</title><g id="Layer_2" data-name="Layer 2"><g id="CURTAS"><path class="cls-1" d="M10,16.18l2.92,0,.64-1.65,1.65,0-.38,1.62h1.83l.46-1.65h1.77l-.41,1.68h1.88l.5-1.61,1.73-.11-.43,1.76h2.69L24.93,14l-12.54-.07a3.11,3.11,0,0,1-.6,1.21,2,2,0,0,1-1.77.69Z"/><path class="cls-1" d="M9.85,11.56a1.6,1.6,0,0,1,1.67.14,2.5,2.5,0,0,1,.84,1.4l12.45-1.8L24.61,9l-2.75.34L22.44,11l-1.74.33L20,9.58l-1.86.25.61,1.65-1.71.37-.63-1.76-1.83.33L15.23,12l-1.77.26-.72-1.69L9.82,11Z"/><path class="cls-1" d="M10.67,11.74a1.69,1.69,0,0,0-1.46,1.85,1.69,1.69,0,0,0,1.46,1.86,1.69,1.69,0,0,0,1.46-1.86A1.69,1.69,0,0,0,10.67,11.74Zm0,2.46c-.59,0-.59-1.18,0-1.18S11.31,14.2,10.71,14.2Z"/><rect class="cls-1" x="9.85" y="16.99" width="15.11" height="7.05"/><circle class="cls-2" cx="17.25" cy="17.25" r="16"/></g></g></svg>