<svg xmlns="http://www.w3.org/2000/svg" viewBox="0 0 34.5 34.5"><defs><style>.cls-1{fill:#28b5c1;}.cls-2{fill:none;stroke:#28b5c1;stroke-miterlimit:10;stroke-width:2.5px;}</style></defs><title>fantasia</title><g id="Layer_2" data-name="Layer 2"><g id="FANTASIA"><path class="cls-1" d="M21.75,24c-2.69,1.45-2.95-1.19-2.95-1.19C16.58,22.5,14.93,20,14.93,20c-3,1.55-1.33,5.92,0,7.6,1.66,2.15.45,5.63.45,5.63S8.57,32.7,5.11,28.36A8.06,8.06,0,0,1,3.92,20a10.9,10.9,0,0,1,3.85-5.21c2.6-2.13,7.42-2.39,7.42-2.39.15-.88,2.68-2.43,2.68-2.43a4.74,4.74,0,0,0-.36,1.65,3.56,3.56,0,0,1,1.09-.93,7.88,7.88,0,0,0,0,3.41c1.34,1.34,2.84,6,2.84,6l.57.83C22.73,21.93,22.46,23.56,21.75,24Z"/><polygon class="cls-1" points="19.64 16.02 24.54 12.49 18.56 14.37 19.64 16.02"/><circle class="cls-2" cx="17.25" cy="17.25" r="16"/></g></g></svg>