<svg xmlns="http://www.w3.org/2000/svg" viewBox="0 0 27.736 24">
  <defs>
    <style>
      .cls-1 {
        fill: none;
        stroke: #30d0dd;
        stroke-linecap: round;
        stroke-linejoin: round;
        stroke-miterlimit: 10;
        stroke-width: 2px;
      }
    </style>
  </defs>
  <path id="Path_3334" data-name="Path 3334" class="cls-1" d="M23.579,13.285c-1.909,2.242-4.981,4.9-9.8,8.8l-.415.415-.415-.332c-4.815-3.985-7.887-6.642-9.8-8.883A9.485,9.485,0,0,1,.5,6.892,6.343,6.343,0,0,1,6.892.5h0c3.155,0,4.9,1.909,6.143,3.321h0l.332.415.332-.415h0C14.945,2.409,16.689.5,19.843.5a6.343,6.343,0,0,1,6.392,6.392A9.485,9.485,0,0,1,23.579,13.285Z" transform="translate(0.5 0.5)"/>
</svg>
