<svg xmlns="http://www.w3.org/2000/svg" xmlns:xlink="http://www.w3.org/1999/xlink" viewBox="0 0 202.547 163.034">
  <defs>
    <style>
      .cls-1, .cls-4 {
        fill: none;
      }

      .cls-1 {
        stroke: #95989a;
      }

      .cls-2 {
        clip-path: url(#clip-path);
      }

      .cls-3 {
        fill: #343f41;
      }

      .cls-4 {
        stroke: #000;
        stroke-miterlimit: 10;
        stroke-width: 4px;
      }
    </style>
    <clipPath id="clip-path">
      <rect id="Rectangle_291" data-name="Rectangle 291" class="cls-1" width="202.547" height="163.034" transform="translate(619.065 293)"/>
    </clipPath>
  </defs>
  <g id="Group_414" data-name="Group 414" transform="translate(-638.065 -277.966)">
    <g id="Mask_Group_1" data-name="Mask Group 1" class="cls-2" transform="translate(19 -15.034)">
      <g id="Group_33" data-name="Group 33" transform="translate(411.362 292.591)">
        <path id="Path_35" data-name="Path 35" d="M616.741,0H0V163.041H614.7c2.038,0,2.038,0,2.038-1.688V0Zm-31.3,10.507c0-.75.227-1.126,1.134-1.126h20.187c.907,0,1.134.187,1.134.938V22.33c0,.75-.227.938-1.134.938H586.573c-.907,0-1.361-.187-1.361-1.126.227-3.756.227-7.7.227-11.636ZM534.63,9.381h19.961c1.134,0,1.361.187,1.361,1.126V22.14c0,.938-.454,1.126-1.361,1.126H534.4c-.908,0-1.361-.187-1.361-.938V10.694C533.041,9.569,533.5,9.381,534.63,9.381Zm-53.758.938c0-.563.227-.75.907-.75H502.42c1.134,0,1.134.378,1.134,1.126V22.511c0,.75-.227.938-1.134.938H482.005c-.68,0-1.134-.187-1.134-.938.227-4.124,0-8.252,0-12.191Zm-156.737.187c0-.75.227-.938,1.134-.938h20.415c.907,0,1.134.187,1.134.938v11.82c0,.938-.454.938-1.361.938H325.042c-.907,0-1.134-.187-1.134-.938.227-3.939.227-7.88.227-11.82Zm-52.17-.187c0-.75.227-.938,1.134-.938h20.415c.907,0,1.134.187,1.134.938V22.33c0,.75-.227.938-1.134.938H273.1c-.907,0-1.134-.187-1.134-.938,0-3.943,0-8.071,0-12.011ZM168.532,9.381H188.72c.907,0,1.134.187,1.134.938v11.82c0,.938-.454.938-1.361.938H168.078c-.907,0-1.134-.187-1.134-.938V10.319A1.457,1.457,0,0,1,168.532,9.381ZM115,10.507c0-.75.227-.938,1.134-.938h20.188c.907,0,1.361.187,1.361.938v11.82c0,.75-.227.938-1.134.938H116.135c-.907,0-1.134-.187-1.134-.938a102.752,102.752,0,0,0,0-11.82ZM63.967,9.381H84.155c.907,0,1.361.187,1.361,1.126v11.82c0,.75-.454.938-1.134.938H63.967c-.907,0-1.134-.187-1.134-.938V10.507c0-.938.225-1.126,1.134-1.126ZM10.434,10.507c0-.938.454-1.126,1.587-1.126H31.984c.907,0,1.361.187,1.361,1.126V22.14c0,.75-.227,1.126-1.134,1.126H12.249c-.907,0-1.361-.187-1.361-1.126C10.661,18.387,10.661,14.447,10.434,10.507Zm22.683,142.4c0,.751-.227.938-1.361.938H11.568c-.907,0-1.134-.187-1.134-.938V140.9c0-.75.227-.938,1.134-.938H31.756c.907,0,1.361.187,1.361.938Zm52.4,0c0,.751-.227.938-1.134.938H63.967c-.907,0-1.134-.187-1.134-.938V141.09c0-.75.227-1.126,1.361-.938H84.381c.907,0,1.361.187,1.361,1.126-.229,3.753-.229,7.692-.229,11.632ZM16.331,131.9c-1.815,0-2.038-.378-2.038-1.688V33.021c0-1.314.454-1.5,1.815-1.5H183.96c1.587,0,1.815.378,1.815,1.5v97.562c0,1.126-.454,1.5-1.815,1.5Q100.257,131.8,16.331,131.9Zm121.35,21.014c0,.751-.227.938-1.134.938H116.588c-.907,0-1.361,0-1.361-1.126V140.9c0-.75.227-.938,1.134-.938h20.187c.907,0,1.134,0,1.134.938Zm51.033.938H168.306c-.907,0-1.134-.187-1.134-.938V140.9c0-.75.454-.938,1.134-.938h20.186c.907,0,1.361.187,1.361.938v11.82c.227.941-.224,1.129-1.134,1.129ZM219.568,10.507c0-.75.227-1.126,1.361-1.126h20.187c.907,0,1.134.187,1.134.938V22.33c0,.75-.227.938-1.134.938H220.7c-.907,0-1.134-.187-1.134-.938Zm22.683,142.4c0,.751-.227.938-1.134.938H220.7c-.907,0-1.134-.187-1.134-.938V140.9c0-.75.227-.938,1.134-.938h20.415c.907,0,1.361.187,1.361.938C242.251,145.03,242.251,148.97,242.251,152.91Zm52.4,0c0,.751-.227.938-1.134.938H273.326c-.907,0-1.361-.187-1.361-.938V141.09c0-.938.227-.938,1.361-.938h20.187c.907,0,1.134.187,1.134.938a102.752,102.752,0,0,0,0,11.82ZM225.012,131.9c-1.361,0-1.588-.378-1.588-1.314V32.646c0-1.126.454-1.314,1.588-1.314H393.318c1.361,0,1.815.187,1.815,1.5v97.748c0,.938-.227,1.314-1.587,1.314Zm120.445,21.952H325.269c-.907,0-1.134-.187-1.134-.938V140.9c0-.75.454-.938,1.134-.938h20.187c.907,0,1.361.187,1.361.938v11.82c0,.941-.227,1.129-1.361,1.129Zm53.531-.938c0,.751-.227.938-1.134.938H377.439c-.907,0-1.134-.378-1.134-.938V141.09c0-.75.227-1.126,1.134-1.126h20.415c.908,0,1.134.187,1.134.938Zm0-130.583c0,.75-.227.938-1.134.938H377.439c-.907,0-1.134-.187-1.134-.938V10.316c0-.938.454-.938,1.361-.938h20.187c.908,0,1.361.187,1.361.938-.227,4.131-.227,8.071-.227,12.011Zm29.71-11.82c0-.938.454-1.126,1.361-1.126H450.02c1.134,0,1.361.187,1.361,1.126V21.952c0,1.126-.454,1.126-1.587,1.126H429.836c-.907,0-1.361-.187-1.361-.938.227-3.752.227-7.692.227-11.632Zm22.683,142.4c0,.751-.227.938-1.134.938h-20.41c-.907,0-1.134-.187-1.134-.938V140.9c0-.75.454-.938,1.134-.938h20.415c.907,0,1.361.187,1.361.938-.227,4.132-.227,8.071-.227,12.012Zm50.809.938H482.005c-.907,0-1.361-.187-1.361-.938V141.09c0-.938.454-.938,1.361-.938h20.187c.907,0,1.361.187,1.361.938v11.82c0,.937-.227.937-1.361.937ZM434.141,131.9c-1.134,0-1.587-.187-1.587-1.314V32.459c0-1.126.454-1.314,1.587-1.314H602.448c1.361,0,1.815.187,1.815,1.5v97.748c0,1.126-.227,1.5-1.815,1.5Zm120.445,21.952h-20.41c-.907,0-1.361-.187-1.361-1.126V140.9c0-.75.227-.938,1.134-.938h20.415c.907,0,1.134.187,1.134.938v11.82c.454.938.226,1.126-.908,1.126Zm53.531-.938c0,.751-.227.938-1.134.938h-20.41c-.907,0-1.134-.187-1.134-.938V140.9c0-.938.454-.938,1.134-.938h20.412c.907,0,1.134.187,1.134.938Z"/>
      </g>
    </g>
    <g id="Group_309" data-name="Group 309" transform="translate(-7952.772 -5457)">
      <rect id="Rectangle_288" data-name="Rectangle 288" class="cls-3" width="173.101" height="101.138" transform="translate(8607 5766)"/>
      <g id="Group_295" data-name="Group 295" transform="translate(8657.387 5779.77)">
        <path id="Path_3327" data-name="Path 3327" class="cls-4" d="M46.449,1.743a36.509,36.509,0,1,0,25.83,44.705h0A36.443,36.443,0,0,0,46.449,1.743Z" transform="translate(-0.499 -0.499)"/>
        <g id="Group_294" data-name="Group 294" transform="translate(21.091 14.96)">
          <g id="Group_292" data-name="Group 292" transform="translate(12.654 39.347)">
            <path id="Path_3328" data-name="Path 3328" d="M16.37,29.341a2.57,2.57,0,1,1,2.57-2.57A2.492,2.492,0,0,1,16.37,29.341Z" transform="translate(-13.8 -24.2)"/>
          </g>
          <g id="Group_293" data-name="Group 293">
            <path id="Path_3329" data-name="Path 3329" d="M22.625,41.67A2.4,2.4,0,0,1,20.252,39.3v-.989a9.583,9.583,0,0,1,6.327-8.9A10.6,10.6,0,0,0,33.1,19.525a2.932,2.932,0,0,0-.2-1.384,10.559,10.559,0,0,0-10.084-8.7h-.2a10.154,10.154,0,0,0-7.316,2.966,10.347,10.347,0,0,0-3.164,7.316A2.4,2.4,0,0,1,9.773,22.1,2.589,2.589,0,0,1,7.4,19.525,14.775,14.775,0,0,1,11.948,8.65,15.638,15.638,0,0,1,22.625,4.3h.2A15.556,15.556,0,0,1,37.849,19.327a15.467,15.467,0,0,1-9.688,14.434A4.822,4.822,0,0,0,25,38.111V39.1A2.335,2.335,0,0,1,22.625,41.67Z" transform="translate(-7.4 -4.3)"/>
          </g>
        </g>
      </g>
    </g>
  </g>
</svg>
