<svg id="Group_1088" data-name="Group 1088" xmlns="http://www.w3.org/2000/svg" viewBox="0 0 138.352 48.607">
  <defs>
    <style>
      .cls-1 {
        fill: #fff;
      }

      .cls-2 {
        fill: #525252;
      }

      .cls-3 {
        fill: #28b5c1;
      }

      .cls-4 {
        fill: #dd3060;
      }
    </style>
  </defs>
  <g id="Group_1083" data-name="Group 1083">
    <g id="Group_1061" data-name="Group 1061" transform="translate(133.753)">
      <rect id="Rectangle_277" data-name="Rectangle 277" class="cls-1" width="4.598" height="4.598"/>
    </g>
    <g id="Group_1062" data-name="Group 1062" transform="translate(120.381)">
      <rect id="Rectangle_278" data-name="Rectangle 278" class="cls-1" width="4.598" height="4.598"/>
    </g>
    <g id="Group_1063" data-name="Group 1063" transform="translate(107.01)">
      <rect id="Rectangle_279" data-name="Rectangle 279" class="cls-1" width="4.598" height="4.598"/>
    </g>
    <g id="Group_1064" data-name="Group 1064" transform="translate(93.626)">
      <rect id="Rectangle_280" data-name="Rectangle 280" class="cls-1" width="4.598" height="4.598"/>
    </g>
    <g id="Group_1065" data-name="Group 1065" transform="translate(80.254)">
      <rect id="Rectangle_281" data-name="Rectangle 281" class="cls-1" width="4.598" height="4.598"/>
    </g>
    <g id="Group_1066" data-name="Group 1066" transform="translate(66.882)">
      <rect id="Rectangle_282" data-name="Rectangle 282" class="cls-1" width="4.598" height="4.598"/>
    </g>
    <g id="Group_1067" data-name="Group 1067" transform="translate(53.499)">
      <rect id="Rectangle_283" data-name="Rectangle 283" class="cls-1" width="4.598" height="4.598"/>
    </g>
    <g id="Group_1068" data-name="Group 1068" transform="translate(40.127)">
      <rect id="Rectangle_284" data-name="Rectangle 284" class="cls-1" width="4.598" height="4.598"/>
    </g>
    <g id="Group_1069" data-name="Group 1069" transform="translate(26.755)">
      <rect id="Rectangle_285" data-name="Rectangle 285" class="cls-1" width="4.598" height="4.598"/>
    </g>
    <g id="Group_1070" data-name="Group 1070" transform="translate(13.372)">
      <rect id="Rectangle_286" data-name="Rectangle 286" class="cls-1" width="4.598" height="4.598"/>
    </g>
    <g id="Group_1071" data-name="Group 1071">
      <rect id="Rectangle_287" data-name="Rectangle 287" class="cls-1" width="4.598" height="4.598"/>
    </g>
    <g id="Group_1072" data-name="Group 1072" transform="translate(133.753 44.008)">
      <rect id="Rectangle_288" data-name="Rectangle 288" class="cls-1" width="4.598" height="4.598"/>
    </g>
    <g id="Group_1073" data-name="Group 1073" transform="translate(120.381 44.008)">
      <rect id="Rectangle_289" data-name="Rectangle 289" class="cls-1" width="4.598" height="4.598"/>
    </g>
    <g id="Group_1074" data-name="Group 1074" transform="translate(107.01 44.008)">
      <rect id="Rectangle_290" data-name="Rectangle 290" class="cls-1" width="4.598" height="4.598"/>
    </g>
    <g id="Group_1075" data-name="Group 1075" transform="translate(93.626 44.008)">
      <rect id="Rectangle_291" data-name="Rectangle 291" class="cls-1" width="4.598" height="4.598"/>
    </g>
    <g id="Group_1076" data-name="Group 1076" transform="translate(80.254 44.008)">
      <rect id="Rectangle_292" data-name="Rectangle 292" class="cls-1" width="4.598" height="4.598"/>
    </g>
    <g id="Group_1077" data-name="Group 1077" transform="translate(66.882 44.008)">
      <rect id="Rectangle_293" data-name="Rectangle 293" class="cls-1" width="4.598" height="4.598"/>
    </g>
    <g id="Group_1078" data-name="Group 1078" transform="translate(53.499 44.008)">
      <rect id="Rectangle_294" data-name="Rectangle 294" class="cls-1" width="4.598" height="4.598"/>
    </g>
    <g id="Group_1079" data-name="Group 1079" transform="translate(40.127 44.008)">
      <rect id="Rectangle_295" data-name="Rectangle 295" class="cls-1" width="4.598" height="4.598"/>
    </g>
    <g id="Group_1080" data-name="Group 1080" transform="translate(26.755 44.008)">
      <rect id="Rectangle_296" data-name="Rectangle 296" class="cls-1" width="4.598" height="4.598"/>
    </g>
    <g id="Group_1081" data-name="Group 1081" transform="translate(13.372 44.008)">
      <rect id="Rectangle_297" data-name="Rectangle 297" class="cls-1" width="4.598" height="4.598"/>
    </g>
    <g id="Group_1082" data-name="Group 1082" transform="translate(0 44.008)">
      <rect id="Rectangle_298" data-name="Rectangle 298" class="cls-1" width="4.598" height="4.598"/>
    </g>
    <path id="Path_3443" data-name="Path 3443" class="cls-1" d="M38.7,77.7v30.354H168V77.7Z" transform="translate(-34.149 -68.562)"/>
  </g>
  <g id="Group_1086" data-name="Group 1086" transform="translate(9.973 13.078)">
    <path id="Path_3444" data-name="Path 3444" class="cls-2" d="M442.8,207.5" transform="translate(-400.697 -196.175)"/>
    <g id="Group_1085" data-name="Group 1085">
      <path id="Path_3445" data-name="Path 3445" class="cls-3" d="M275.4,116.122H286.37V111.3H273.833a5.365,5.365,0,0,0-5.433,5.269v16.923h4.822v-8.679H286.37v-4.822H273.234V118.3A2.158,2.158,0,0,1,275.4,116.122Z" transform="translate(-246.808 -111.288)"/>
      <path id="Path_3446" data-name="Path 3446" class="cls-4" d="M944.692,156.834h11.949a.131.131,0,0,0,.129-.129v-4.575a.131.131,0,0,0-.129-.129H944.233a5.365,5.365,0,0,0-5.433,5.269v6.739a5.357,5.357,0,0,0,5.433,5.269h12.419a.13.13,0,0,0,.129-.129v-4.563a.13.13,0,0,0-.129-.129H944.692a1.074,1.074,0,0,1-1.07-1.07v-.318H956.77v-4.822H943.622v-.353A1.072,1.072,0,0,1,944.692,156.834Z" transform="translate(-838.364 -147.202)"/>
      <path id="Path_3447" data-name="Path 3447" class="cls-3" d="M97.725,133.492H89.857a5.173,5.173,0,0,1-5.057-5.269V111.3h4.822v15.077a2.218,2.218,0,0,0,2.293,2.293h3.74a2.218,2.218,0,0,0,2.293-2.293V111.3h4.822v16.923A5.156,5.156,0,0,1,97.725,133.492Z" transform="translate(-84.8 -111.288)"/>
      <path id="Path_3448" data-name="Path 3448" class="cls-4" d="M768.313,152.3a5.173,5.173,0,0,1,5.057,5.269v12.337h-4.822v-10.49a2.218,2.218,0,0,0-2.293-2.293h-6.033v12.784H755.4V152.3Z" transform="translate(-676.534 -147.466)"/>
      <g id="Group_1084" data-name="Group 1084" transform="translate(70.328 4.834)">
        <rect id="Rectangle_299" data-name="Rectangle 299" class="cls-4" width="4.822" height="17.37"/>
      </g>
      <path id="Path_3449" data-name="Path 3449" class="cls-3" d="M456.734,126.736a1.908,1.908,0,0,0,1.929,1.929h9.891a1.931,1.931,0,0,0,2.046-1.929v-3l4.822,1.964v2.352a5.443,5.443,0,0,1-5.433,5.433H457.333a5.443,5.443,0,0,1-5.433-5.433v-11.42a5.443,5.443,0,0,1,5.433-5.433H470a5.443,5.443,0,0,1,5.433,5.433v2.352l-4.822,1.964v-3a1.938,1.938,0,0,0-2.046-1.929h-9.891a1.908,1.908,0,0,0-1.929,1.929v8.785Z" transform="translate(-408.727 -111.2)"/>
    </g>
  </g>
</svg>
