<svg xmlns="http://www.w3.org/2000/svg" xmlns:xlink="http://www.w3.org/1999/xlink" viewBox="0 0 657.977 163.034">
  <defs>
    <style>
      .cls-1, .cls-8 {
        fill: none;
      }

      .cls-1 {
        stroke: #95989a;
      }

      .cls-2, .cls-3 {
        fill: #fff;
      }

      .cls-2 {
        stroke: #707070;
      }

      .cls-4 {
        clip-path: url(#clip-path);
      }

      .cls-5 {
        fill: #bcbcbc;
      }

      .cls-6 {
        fill: #646464;
      }

      .cls-7 {
        fill: #343f41;
      }

      .cls-8 {
        stroke: #000;
        stroke-miterlimit: 10;
        stroke-width: 4px;
      }

      .cls-9 {
        clip-path: url(#clip-path-3);
      }

      .cls-10 {
        clip-path: url(#clip-path-4);
      }

      .cls-11 {
        clip-path: url(#clip-path-5);
      }

      .cls-12 {
        clip-path: url(#clip-path-6);
      }

      .cls-13 {
        fill: url(#linear-gradient);
      }
    </style>
    <clipPath id="clip-path">
      <rect id="Rectangle_291" data-name="Rectangle 291" class="cls-1" width="164.137" height="132.117" transform="translate(619.065 293)"/>
    </clipPath>
    <clipPath id="clip-path-3">
      <rect id="Rectangle_291-3" data-name="Rectangle 291" class="cls-1" width="63.137" height="132.117" transform="translate(720.065 293)"/>
    </clipPath>
    <clipPath id="clip-path-4">
      <rect id="Rectangle_74" data-name="Rectangle 74" class="cls-2" width="51.956" height="82.519" transform="translate(411 318)"/>
    </clipPath>
    <clipPath id="clip-path-5">
      <rect id="Rectangle_291-4" data-name="Rectangle 291" class="cls-1" width="62.137" height="132.117" transform="translate(619.065 293)"/>
    </clipPath>
    <clipPath id="clip-path-6">
      <rect id="Rectangle_75" data-name="Rectangle 75" class="cls-3" width="51.956" height="82.519" transform="translate(1017 318)"/>
    </clipPath>
    <linearGradient id="linear-gradient" y1="0.5" x2="1" y2="0.5" gradientUnits="objectBoundingBox">
      <stop offset="0" stop-opacity="0.8"/>
      <stop offset="1" stop-opacity="0"/>
    </linearGradient>
  </defs>
  <g id="Group_416" data-name="Group 416" transform="translate(-410.378 -277.966)">
    <g id="Group_408" data-name="Group 408">
      <g id="Group_404" data-name="Group 404">
        <g id="Mask_Group_2" data-name="Mask Group 2" class="cls-4" transform="translate(-145.267)">
          <g id="Group_34" data-name="Group 34" transform="translate(450.75 292.669)">
            <g id="Group_188" data-name="Group 188" transform="translate(181.061 23.864)">
              <rect id="Rectangle_288" data-name="Rectangle 288" class="cls-5" width="139.817" height="84.106"/>
              <g id="Group_187" data-name="Group 187" transform="translate(36.723 9.45)">
                <ellipse id="Ellipse_17" data-name="Ellipse 17" class="cls-6" cx="34.572" cy="33.075" rx="34.572" ry="33.075" transform="translate(0 0)"/>
                <path id="Path_32" data-name="Path 32" class="cls-3" d="M0,0,23.406,16.779,0,33.558Z" transform="translate(25.136 16.065)"/>
              </g>
            </g>
            <path id="Path_35" data-name="Path 35" d="M499.784,0H0V132.123H498.13c1.652,0,1.652,0,1.652-1.368V0ZM474.418,8.514c0-.608.184-.912.919-.912H491.7c.735,0,.919.152.919.76V18.1c0,.608-.184.76-.919.76h-16.36c-.735,0-1.1-.152-1.1-.912.184-3.044.184-6.237.184-9.429ZM433.244,7.6H449.42c.919,0,1.1.152,1.1.912v9.427c0,.76-.368.912-1.1.912H433.061c-.736,0-1.1-.152-1.1-.76V8.666C431.957,7.754,432.325,7.6,433.244,7.6Zm-43.563.76c0-.456.184-.608.735-.608h16.727c.919,0,.919.306.919.912v9.575c0,.608-.184.76-.919.76H390.6c-.551,0-.919-.152-.919-.76.184-3.342,0-6.687,0-9.879Zm-127.014.152c0-.608.184-.76.919-.76h16.543c.735,0,.919.152.919.76v9.578c0,.76-.368.76-1.1.76H263.4c-.735,0-.919-.152-.919-.76.184-3.192.184-6.385.184-9.578ZM220.39,8.362c0-.608.184-.76.919-.76h16.543c.735,0,.919.152.919.76V18.1c0,.608-.184.76-.919.76H221.309c-.735,0-.919-.152-.919-.76,0-3.2,0-6.541,0-9.733ZM136.572,7.6h16.359c.735,0,.919.152.919.76v9.578c0,.76-.368.76-1.1.76H136.2c-.735,0-.919-.152-.919-.76V8.362A1.181,1.181,0,0,1,136.572,7.6Zm-43.38.912c0-.608.184-.76.919-.76h16.36c.735,0,1.1.152,1.1.76v9.578c0,.608-.184.76-.919.76H94.112c-.735,0-.919-.152-.919-.76a83.266,83.266,0,0,0,0-9.578ZM51.837,7.6H68.2c.735,0,1.1.152,1.1.912v9.578c0,.608-.368.76-.919.76H51.837c-.735,0-.919-.152-.919-.76V8.514c0-.76.182-.912.919-.912ZM8.455,8.514c0-.76.368-.912,1.286-.912H25.918c.735,0,1.1.152,1.1.912v9.427c0,.608-.184.912-.919.912H9.926c-.735,0-1.1-.152-1.1-.912C8.639,14.9,8.639,11.707,8.455,8.514Zm18.381,115.4c0,.608-.184.76-1.1.76H9.374c-.735,0-.919-.152-.919-.76v-9.733c0-.608.184-.76.919-.76H25.734c.735,0,1.1.152,1.1.76Zm42.46,0c0,.608-.184.76-.919.76H51.837c-.735,0-.919-.152-.919-.76v-9.578c0-.608.184-.912,1.1-.76H68.38c.735,0,1.1.152,1.1.912-.185,3.041-.185,6.233-.185,9.426ZM13.234,106.884c-1.471,0-1.652-.306-1.652-1.368V26.759c0-1.065.368-1.216,1.471-1.216H149.074c1.286,0,1.471.306,1.471,1.216V105.82c0,.912-.368,1.216-1.471,1.216Q81.245,106.808,13.234,106.884Zm98.338,17.029c0,.608-.184.76-.919.76H94.479c-.735,0-1.1,0-1.1-.912v-9.579c0-.608.184-.76.919-.76h16.359c.735,0,.919,0,.919.76Zm41.355.76H136.389c-.735,0-.919-.152-.919-.76v-9.733c0-.608.368-.76.919-.76h16.358c.735,0,1.1.152,1.1.76v9.579c.184.763-.182.915-.919.915Zm25-116.159c0-.608.184-.912,1.1-.912h16.359c.735,0,.919.152.919.76V18.1c0,.608-.184.76-.919.76H178.849c-.735,0-.919-.152-.919-.76Zm18.381,115.4c0,.608-.184.76-.919.76H178.849c-.735,0-.919-.152-.919-.76v-9.733c0-.608.184-.76.919-.76h16.543c.735,0,1.1.152,1.1.76C196.311,117.527,196.311,120.72,196.311,123.913Zm42.46,0c0,.608-.184.76-.919.76H221.493c-.735,0-1.1-.152-1.1-.76v-9.578c0-.76.184-.76,1.1-.76h16.359c.735,0,.919.152.919.76a83.263,83.263,0,0,0,0,9.578Zm-56.43-17.029c-1.1,0-1.287-.306-1.287-1.065V26.455c0-.912.368-1.065,1.287-1.065H318.731c1.1,0,1.471.152,1.471,1.216v79.211c0,.76-.184,1.065-1.286,1.065Zm97.6,17.789H263.586c-.735,0-.919-.152-.919-.76v-9.733c0-.608.368-.76.919-.76h16.359c.735,0,1.1.152,1.1.76v9.579c0,.763-.184.915-1.1.915Zm43.38-.76c0,.608-.184.76-.919.76H305.863c-.735,0-.919-.306-.919-.76v-9.578c0-.608.184-.912.919-.912h16.543c.736,0,.919.152.919.76Zm0-105.82c0,.608-.184.76-.919.76H305.863c-.735,0-.919-.152-.919-.76V8.359c0-.76.368-.76,1.1-.76h16.359c.736,0,1.1.152,1.1.76-.184,3.348-.184,6.541-.184,9.733ZM347.4,8.514c0-.76.368-.912,1.1-.912h16.176c.919,0,1.1.152,1.1.912v9.275c0,.912-.368.912-1.286.912H348.323c-.735,0-1.1-.152-1.1-.76.184-3.041.184-6.233.184-9.426Zm18.381,115.4c0,.608-.184.76-.919.76H348.323c-.735,0-.919-.152-.919-.76v-9.733c0-.608.368-.76.919-.76h16.543c.735,0,1.1.152,1.1.76-.184,3.348-.184,6.541-.184,9.734Zm41.173.76H390.6c-.735,0-1.1-.152-1.1-.76v-9.578c0-.76.368-.76,1.1-.76h16.359c.735,0,1.1.152,1.1.76v9.579c0,.76-.184.76-1.1.76Zm-55.143-17.789c-.919,0-1.286-.152-1.286-1.065V26.3c0-.912.368-1.065,1.286-1.065H488.2c1.1,0,1.471.152,1.471,1.216v79.211c0,.912-.184,1.216-1.471,1.216Zm97.6,17.789h-16.54c-.735,0-1.1-.152-1.1-.912v-9.578c0-.608.184-.76.919-.76h16.543c.735,0,.919.152.919.76v9.579c.368.76.183.912-.736.912Zm43.38-.76c0,.608-.184.76-.919.76h-16.54c-.735,0-.919-.152-.919-.76v-9.733c0-.76.368-.76.919-.76h16.541c.735,0,.919.152.919.76Z"/>
          </g>
        </g>
        <g id="Group_307" data-name="Group 307" transform="translate(-8121.772 -5448)">
          <path id="Rectangle_288-2" data-name="Rectangle 288" class="cls-7" d="M0,0H141.233V82.519H0Z" transform="translate(8607 5766)"/>
          <g id="Group_295" data-name="Group 295" transform="translate(8643.215 5773.156)">
            <path id="Path_3327" data-name="Path 3327" class="cls-8" d="M43.391,1.66A34.079,34.079,0,1,0,67.5,43.391h0A34.018,34.018,0,0,0,43.391,1.66Z" transform="translate(-0.499 -0.499)"/>
            <g id="Group_294" data-name="Group 294" transform="translate(19.688 13.964)">
              <g id="Group_292" data-name="Group 292" transform="translate(11.812 36.729)">
                <path id="Path_3328" data-name="Path 3328" d="M16.2,29a2.4,2.4,0,1,1,2.4-2.4A2.326,2.326,0,0,1,16.2,29Z" transform="translate(-13.8 -24.2)"/>
              </g>
              <g id="Group_293" data-name="Group 293">
                <path id="Path_3329" data-name="Path 3329" d="M21.612,39.183A2.244,2.244,0,0,1,19.4,36.968v-.923A8.946,8.946,0,0,1,25.3,27.74a9.892,9.892,0,0,0,6.091-9.228,2.737,2.737,0,0,0-.185-1.292A9.856,9.856,0,0,0,21.8,9.1h-.185a9.478,9.478,0,0,0-6.829,2.769A9.658,9.658,0,0,0,11.83,18.7a2.244,2.244,0,0,1-2.215,2.215,2.417,2.417,0,0,1-2.215-2.4A13.792,13.792,0,0,1,11.645,8.36,14.6,14.6,0,0,1,21.612,4.3H21.8A14.521,14.521,0,0,1,35.823,18.327,14.438,14.438,0,0,1,26.78,31.8a4.5,4.5,0,0,0-2.953,4.06v.923A2.18,2.18,0,0,1,21.612,39.183Z" transform="translate(-7.4 -4.3)"/>
              </g>
            </g>
          </g>
        </g>
      </g>
      <g id="Group_406" data-name="Group 406">
        <g id="Mask_Group_4" data-name="Mask Group 4" class="cls-4" transform="translate(221.733)">
          <g id="Group_36" data-name="Group 36" transform="translate(450.75 292.669)">
            <g id="Group_188-2" data-name="Group 188" transform="translate(181.061 23.864)">
              <rect id="Rectangle_288-3" data-name="Rectangle 288" class="cls-5" width="139.817" height="84.106"/>
              <g id="Group_187-2" data-name="Group 187" transform="translate(36.723 9.45)">
                <ellipse id="Ellipse_17-2" data-name="Ellipse 17" class="cls-6" cx="34.572" cy="33.075" rx="34.572" ry="33.075" transform="translate(0 0)"/>
                <path id="Path_32-2" data-name="Path 32" class="cls-3" d="M0,0,23.406,16.779,0,33.558Z" transform="translate(25.136 16.065)"/>
              </g>
            </g>
            <path id="Path_35-2" data-name="Path 35" d="M499.784,0H0V132.123H498.13c1.652,0,1.652,0,1.652-1.368V0ZM474.418,8.514c0-.608.184-.912.919-.912H491.7c.735,0,.919.152.919.76V18.1c0,.608-.184.76-.919.76h-16.36c-.735,0-1.1-.152-1.1-.912.184-3.044.184-6.237.184-9.429ZM433.244,7.6H449.42c.919,0,1.1.152,1.1.912v9.427c0,.76-.368.912-1.1.912H433.061c-.736,0-1.1-.152-1.1-.76V8.666C431.957,7.754,432.325,7.6,433.244,7.6Zm-43.563.76c0-.456.184-.608.735-.608h16.727c.919,0,.919.306.919.912v9.575c0,.608-.184.76-.919.76H390.6c-.551,0-.919-.152-.919-.76.184-3.342,0-6.687,0-9.879Zm-127.014.152c0-.608.184-.76.919-.76h16.543c.735,0,.919.152.919.76v9.578c0,.76-.368.76-1.1.76H263.4c-.735,0-.919-.152-.919-.76.184-3.192.184-6.385.184-9.578ZM220.39,8.362c0-.608.184-.76.919-.76h16.543c.735,0,.919.152.919.76V18.1c0,.608-.184.76-.919.76H221.309c-.735,0-.919-.152-.919-.76,0-3.2,0-6.541,0-9.733ZM136.572,7.6h16.359c.735,0,.919.152.919.76v9.578c0,.76-.368.76-1.1.76H136.2c-.735,0-.919-.152-.919-.76V8.362A1.181,1.181,0,0,1,136.572,7.6Zm-43.38.912c0-.608.184-.76.919-.76h16.36c.735,0,1.1.152,1.1.76v9.578c0,.608-.184.76-.919.76H94.112c-.735,0-.919-.152-.919-.76a83.266,83.266,0,0,0,0-9.578ZM51.837,7.6H68.2c.735,0,1.1.152,1.1.912v9.578c0,.608-.368.76-.919.76H51.837c-.735,0-.919-.152-.919-.76V8.514c0-.76.182-.912.919-.912ZM8.455,8.514c0-.76.368-.912,1.286-.912H25.918c.735,0,1.1.152,1.1.912v9.427c0,.608-.184.912-.919.912H9.926c-.735,0-1.1-.152-1.1-.912C8.639,14.9,8.639,11.707,8.455,8.514Zm18.381,115.4c0,.608-.184.76-1.1.76H9.374c-.735,0-.919-.152-.919-.76v-9.733c0-.608.184-.76.919-.76H25.734c.735,0,1.1.152,1.1.76Zm42.46,0c0,.608-.184.76-.919.76H51.837c-.735,0-.919-.152-.919-.76v-9.578c0-.608.184-.912,1.1-.76H68.38c.735,0,1.1.152,1.1.912-.185,3.041-.185,6.233-.185,9.426ZM13.234,106.884c-1.471,0-1.652-.306-1.652-1.368V26.759c0-1.065.368-1.216,1.471-1.216H149.074c1.286,0,1.471.306,1.471,1.216V105.82c0,.912-.368,1.216-1.471,1.216Q81.245,106.808,13.234,106.884Zm98.338,17.029c0,.608-.184.76-.919.76H94.479c-.735,0-1.1,0-1.1-.912v-9.579c0-.608.184-.76.919-.76h16.359c.735,0,.919,0,.919.76Zm41.355.76H136.389c-.735,0-.919-.152-.919-.76v-9.733c0-.608.368-.76.919-.76h16.358c.735,0,1.1.152,1.1.76v9.579c.184.763-.182.915-.919.915Zm25-116.159c0-.608.184-.912,1.1-.912h16.359c.735,0,.919.152.919.76V18.1c0,.608-.184.76-.919.76H178.849c-.735,0-.919-.152-.919-.76Zm18.381,115.4c0,.608-.184.76-.919.76H178.849c-.735,0-.919-.152-.919-.76v-9.733c0-.608.184-.76.919-.76h16.543c.735,0,1.1.152,1.1.76C196.311,117.527,196.311,120.72,196.311,123.913Zm42.46,0c0,.608-.184.76-.919.76H221.493c-.735,0-1.1-.152-1.1-.76v-9.578c0-.76.184-.76,1.1-.76h16.359c.735,0,.919.152.919.76a83.263,83.263,0,0,0,0,9.578Zm-56.43-17.029c-1.1,0-1.287-.306-1.287-1.065V26.455c0-.912.368-1.065,1.287-1.065H318.731c1.1,0,1.471.152,1.471,1.216v79.211c0,.76-.184,1.065-1.286,1.065Zm97.6,17.789H263.586c-.735,0-.919-.152-.919-.76v-9.733c0-.608.368-.76.919-.76h16.359c.735,0,1.1.152,1.1.76v9.579c0,.763-.184.915-1.1.915Zm43.38-.76c0,.608-.184.76-.919.76H305.863c-.735,0-.919-.306-.919-.76v-9.578c0-.608.184-.912.919-.912h16.543c.736,0,.919.152.919.76Zm0-105.82c0,.608-.184.76-.919.76H305.863c-.735,0-.919-.152-.919-.76V8.359c0-.76.368-.76,1.1-.76h16.359c.736,0,1.1.152,1.1.76-.184,3.348-.184,6.541-.184,9.733ZM347.4,8.514c0-.76.368-.912,1.1-.912h16.176c.919,0,1.1.152,1.1.912v9.275c0,.912-.368.912-1.286.912H348.323c-.735,0-1.1-.152-1.1-.76.184-3.041.184-6.233.184-9.426Zm18.381,115.4c0,.608-.184.76-.919.76H348.323c-.735,0-.919-.152-.919-.76v-9.733c0-.608.368-.76.919-.76h16.543c.735,0,1.1.152,1.1.76-.184,3.348-.184,6.541-.184,9.734Zm41.173.76H390.6c-.735,0-1.1-.152-1.1-.76v-9.578c0-.76.368-.76,1.1-.76h16.359c.735,0,1.1.152,1.1.76v9.579c0,.76-.184.76-1.1.76Zm-55.143-17.789c-.919,0-1.286-.152-1.286-1.065V26.3c0-.912.368-1.065,1.286-1.065H488.2c1.1,0,1.471.152,1.471,1.216v79.211c0,.912-.184,1.216-1.471,1.216Zm97.6,17.789h-16.54c-.735,0-1.1-.152-1.1-.912v-9.578c0-.608.184-.76.919-.76h16.543c.735,0,.919.152.919.76v9.579c.368.76.183.912-.736.912Zm43.38-.76c0,.608-.184.76-.919.76h-16.54c-.735,0-.919-.152-.919-.76v-9.733c0-.76.368-.76.919-.76h16.541c.735,0,.919.152.919.76Z"/>
          </g>
        </g>
        <g id="Group_310" data-name="Group 310" transform="translate(-7754.772 -5448)">
          <path id="Rectangle_288-4" data-name="Rectangle 288" class="cls-7" d="M0,0H141.233V82.519H0Z" transform="translate(8607 5766)"/>
          <g id="Group_295-2" data-name="Group 295" transform="translate(8643.215 5773.156)">
            <path id="Path_3327-2" data-name="Path 3327" class="cls-8" d="M43.391,1.66A34.079,34.079,0,1,0,67.5,43.391h0A34.018,34.018,0,0,0,43.391,1.66Z" transform="translate(-0.499 -0.499)"/>
            <g id="Group_294-2" data-name="Group 294" transform="translate(19.688 13.964)">
              <g id="Group_292-2" data-name="Group 292" transform="translate(11.812 36.729)">
                <path id="Path_3328-2" data-name="Path 3328" d="M16.2,29a2.4,2.4,0,1,1,2.4-2.4A2.326,2.326,0,0,1,16.2,29Z" transform="translate(-13.8 -24.2)"/>
              </g>
              <g id="Group_293-2" data-name="Group 293">
                <path id="Path_3329-2" data-name="Path 3329" d="M21.612,39.183A2.244,2.244,0,0,1,19.4,36.968v-.923A8.946,8.946,0,0,1,25.3,27.74a9.892,9.892,0,0,0,6.091-9.228,2.737,2.737,0,0,0-.185-1.292A9.856,9.856,0,0,0,21.8,9.1h-.185a9.478,9.478,0,0,0-6.829,2.769A9.658,9.658,0,0,0,11.83,18.7a2.244,2.244,0,0,1-2.215,2.215,2.417,2.417,0,0,1-2.215-2.4A13.792,13.792,0,0,1,11.645,8.36,14.6,14.6,0,0,1,21.612,4.3H21.8A14.521,14.521,0,0,1,35.823,18.327,14.438,14.438,0,0,1,26.78,31.8a4.5,4.5,0,0,0-2.953,4.06v.923A2.18,2.18,0,0,1,21.612,39.183Z" transform="translate(-7.4 -4.3)"/>
              </g>
            </g>
          </g>
        </g>
      </g>
      <g id="Group_405" data-name="Group 405">
        <g id="Mask_Group_3" data-name="Mask Group 3" class="cls-9" transform="translate(-309.267)">
          <g id="Group_35" data-name="Group 35" transform="translate(450.75 292.669)">
            <g id="Group_188-3" data-name="Group 188" transform="translate(181.061 23.864)">
              <rect id="Rectangle_288-5" data-name="Rectangle 288" class="cls-5" width="139.817" height="84.106"/>
              <g id="Group_187-3" data-name="Group 187" transform="translate(36.723 9.45)">
                <ellipse id="Ellipse_17-3" data-name="Ellipse 17" class="cls-6" cx="34.572" cy="33.075" rx="34.572" ry="33.075" transform="translate(0 0)"/>
                <path id="Path_32-3" data-name="Path 32" class="cls-3" d="M0,0,23.406,16.779,0,33.558Z" transform="translate(25.136 16.065)"/>
              </g>
            </g>
            <path id="Path_35-3" data-name="Path 35" d="M499.784,0H0V132.123H498.13c1.652,0,1.652,0,1.652-1.368V0ZM474.418,8.514c0-.608.184-.912.919-.912H491.7c.735,0,.919.152.919.76V18.1c0,.608-.184.76-.919.76h-16.36c-.735,0-1.1-.152-1.1-.912.184-3.044.184-6.237.184-9.429ZM433.244,7.6H449.42c.919,0,1.1.152,1.1.912v9.427c0,.76-.368.912-1.1.912H433.061c-.736,0-1.1-.152-1.1-.76V8.666C431.957,7.754,432.325,7.6,433.244,7.6Zm-43.563.76c0-.456.184-.608.735-.608h16.727c.919,0,.919.306.919.912v9.575c0,.608-.184.76-.919.76H390.6c-.551,0-.919-.152-.919-.76.184-3.342,0-6.687,0-9.879Zm-127.014.152c0-.608.184-.76.919-.76h16.543c.735,0,.919.152.919.76v9.578c0,.76-.368.76-1.1.76H263.4c-.735,0-.919-.152-.919-.76.184-3.192.184-6.385.184-9.578ZM220.39,8.362c0-.608.184-.76.919-.76h16.543c.735,0,.919.152.919.76V18.1c0,.608-.184.76-.919.76H221.309c-.735,0-.919-.152-.919-.76,0-3.2,0-6.541,0-9.733ZM136.572,7.6h16.359c.735,0,.919.152.919.76v9.578c0,.76-.368.76-1.1.76H136.2c-.735,0-.919-.152-.919-.76V8.362A1.181,1.181,0,0,1,136.572,7.6Zm-43.38.912c0-.608.184-.76.919-.76h16.36c.735,0,1.1.152,1.1.76v9.578c0,.608-.184.76-.919.76H94.112c-.735,0-.919-.152-.919-.76a83.266,83.266,0,0,0,0-9.578ZM51.837,7.6H68.2c.735,0,1.1.152,1.1.912v9.578c0,.608-.368.76-.919.76H51.837c-.735,0-.919-.152-.919-.76V8.514c0-.76.182-.912.919-.912ZM8.455,8.514c0-.76.368-.912,1.286-.912H25.918c.735,0,1.1.152,1.1.912v9.427c0,.608-.184.912-.919.912H9.926c-.735,0-1.1-.152-1.1-.912C8.639,14.9,8.639,11.707,8.455,8.514Zm18.381,115.4c0,.608-.184.76-1.1.76H9.374c-.735,0-.919-.152-.919-.76v-9.733c0-.608.184-.76.919-.76H25.734c.735,0,1.1.152,1.1.76Zm42.46,0c0,.608-.184.76-.919.76H51.837c-.735,0-.919-.152-.919-.76v-9.578c0-.608.184-.912,1.1-.76H68.38c.735,0,1.1.152,1.1.912-.185,3.041-.185,6.233-.185,9.426ZM13.234,106.884c-1.471,0-1.652-.306-1.652-1.368V26.759c0-1.065.368-1.216,1.471-1.216H149.074c1.286,0,1.471.306,1.471,1.216V105.82c0,.912-.368,1.216-1.471,1.216Q81.245,106.808,13.234,106.884Zm98.338,17.029c0,.608-.184.76-.919.76H94.479c-.735,0-1.1,0-1.1-.912v-9.579c0-.608.184-.76.919-.76h16.359c.735,0,.919,0,.919.76Zm41.355.76H136.389c-.735,0-.919-.152-.919-.76v-9.733c0-.608.368-.76.919-.76h16.358c.735,0,1.1.152,1.1.76v9.579c.184.763-.182.915-.919.915Zm25-116.159c0-.608.184-.912,1.1-.912h16.359c.735,0,.919.152.919.76V18.1c0,.608-.184.76-.919.76H178.849c-.735,0-.919-.152-.919-.76Zm18.381,115.4c0,.608-.184.76-.919.76H178.849c-.735,0-.919-.152-.919-.76v-9.733c0-.608.184-.76.919-.76h16.543c.735,0,1.1.152,1.1.76C196.311,117.527,196.311,120.72,196.311,123.913Zm42.46,0c0,.608-.184.76-.919.76H221.493c-.735,0-1.1-.152-1.1-.76v-9.578c0-.76.184-.76,1.1-.76h16.359c.735,0,.919.152.919.76a83.263,83.263,0,0,0,0,9.578Zm-56.43-17.029c-1.1,0-1.287-.306-1.287-1.065V26.455c0-.912.368-1.065,1.287-1.065H318.731c1.1,0,1.471.152,1.471,1.216v79.211c0,.76-.184,1.065-1.286,1.065Zm97.6,17.789H263.586c-.735,0-.919-.152-.919-.76v-9.733c0-.608.368-.76.919-.76h16.359c.735,0,1.1.152,1.1.76v9.579c0,.763-.184.915-1.1.915Zm43.38-.76c0,.608-.184.76-.919.76H305.863c-.735,0-.919-.306-.919-.76v-9.578c0-.608.184-.912.919-.912h16.543c.736,0,.919.152.919.76Zm0-105.82c0,.608-.184.76-.919.76H305.863c-.735,0-.919-.152-.919-.76V8.359c0-.76.368-.76,1.1-.76h16.359c.736,0,1.1.152,1.1.76-.184,3.348-.184,6.541-.184,9.733ZM347.4,8.514c0-.76.368-.912,1.1-.912h16.176c.919,0,1.1.152,1.1.912v9.275c0,.912-.368.912-1.286.912H348.323c-.735,0-1.1-.152-1.1-.76.184-3.041.184-6.233.184-9.426Zm18.381,115.4c0,.608-.184.76-.919.76H348.323c-.735,0-.919-.152-.919-.76v-9.733c0-.608.368-.76.919-.76h16.543c.735,0,1.1.152,1.1.76-.184,3.348-.184,6.541-.184,9.734Zm41.173.76H390.6c-.735,0-1.1-.152-1.1-.76v-9.578c0-.76.368-.76,1.1-.76h16.359c.735,0,1.1.152,1.1.76v9.579c0,.76-.184.76-1.1.76Zm-55.143-17.789c-.919,0-1.286-.152-1.286-1.065V26.3c0-.912.368-1.065,1.286-1.065H488.2c1.1,0,1.471.152,1.471,1.216v79.211c0,.912-.184,1.216-1.471,1.216Zm97.6,17.789h-16.54c-.735,0-1.1-.152-1.1-.912v-9.578c0-.608.184-.76.919-.76h16.543c.735,0,.919.152.919.76v9.579c.368.76.183.912-.736.912Zm43.38-.76c0,.608-.184.76-.919.76h-16.54c-.735,0-.919-.152-.919-.76v-9.733c0-.76.368-.76.919-.76h16.541c.735,0,.919.152.919.76Z"/>
          </g>
        </g>
        <g id="Mask_Group_7" data-name="Mask Group 7" class="cls-10" transform="translate(-0.2)">
          <g id="Group_299" data-name="Group 299" transform="translate(320.563 318)">
            <rect id="Rectangle_288-6" data-name="Rectangle 288" class="cls-7" width="141.92" height="82.92" transform="translate(0 0)"/>
            <g id="Group_295-3" data-name="Group 295" transform="translate(36.391 7.19)">
              <path id="Path_3327-3" data-name="Path 3327" class="cls-8" d="M43.6,1.666A34.245,34.245,0,1,0,67.828,43.6h0A34.184,34.184,0,0,0,43.6,1.666Z" transform="translate(-0.499 -0.499)"/>
              <g id="Group_294-3" data-name="Group 294" transform="translate(19.783 14.032)">
                <g id="Group_292-3" data-name="Group 292" transform="translate(11.87 36.907)">
                  <path id="Path_3328-3" data-name="Path 3328" d="M16.211,29.022a2.411,2.411,0,1,1,2.411-2.411A2.338,2.338,0,0,1,16.211,29.022Z" transform="translate(-13.8 -24.2)"/>
                </g>
                <g id="Group_293-3" data-name="Group 293">
                  <path id="Path_3329-3" data-name="Path 3329" d="M21.681,39.353a2.255,2.255,0,0,1-2.226-2.226V36.2a8.989,8.989,0,0,1,5.935-8.346,9.94,9.94,0,0,0,6.12-9.273,2.75,2.75,0,0,0-.185-1.3,9.9,9.9,0,0,0-9.459-8.16h-.185A9.524,9.524,0,0,0,14.819,11.9a9.705,9.705,0,0,0-2.967,6.862,2.255,2.255,0,0,1-2.226,2.226A2.428,2.428,0,0,1,7.4,18.581a13.859,13.859,0,0,1,4.266-10.2A14.668,14.668,0,0,1,21.681,4.3h.185a14.592,14.592,0,0,1,14.1,14.1,14.508,14.508,0,0,1-9.088,13.539,4.523,4.523,0,0,0-2.967,4.08v.927A2.19,2.19,0,0,1,21.681,39.353Z" transform="translate(-7.4 -4.3)"/>
                </g>
              </g>
            </g>
          </g>
        </g>
      </g>
      <g id="Group_407" data-name="Group 407">
        <g id="Mask_Group_5" data-name="Mask Group 5" class="cls-11" transform="translate(385.733)">
          <g id="Group_37" data-name="Group 37" transform="translate(450.75 292.669)">
            <g id="Group_188-4" data-name="Group 188" transform="translate(181.061 23.864)">
              <rect id="Rectangle_288-7" data-name="Rectangle 288" class="cls-5" width="139.817" height="84.106"/>
              <g id="Group_187-4" data-name="Group 187" transform="translate(36.723 9.45)">
                <ellipse id="Ellipse_17-4" data-name="Ellipse 17" class="cls-6" cx="34.572" cy="33.075" rx="34.572" ry="33.075" transform="translate(0 0)"/>
                <path id="Path_32-4" data-name="Path 32" class="cls-3" d="M0,0,23.406,16.779,0,33.558Z" transform="translate(25.136 16.065)"/>
              </g>
            </g>
            <path id="Path_35-4" data-name="Path 35" d="M499.784,0H0V132.123H498.13c1.652,0,1.652,0,1.652-1.368V0ZM474.418,8.514c0-.608.184-.912.919-.912H491.7c.735,0,.919.152.919.76V18.1c0,.608-.184.76-.919.76h-16.36c-.735,0-1.1-.152-1.1-.912.184-3.044.184-6.237.184-9.429ZM433.244,7.6H449.42c.919,0,1.1.152,1.1.912v9.427c0,.76-.368.912-1.1.912H433.061c-.736,0-1.1-.152-1.1-.76V8.666C431.957,7.754,432.325,7.6,433.244,7.6Zm-43.563.76c0-.456.184-.608.735-.608h16.727c.919,0,.919.306.919.912v9.575c0,.608-.184.76-.919.76H390.6c-.551,0-.919-.152-.919-.76.184-3.342,0-6.687,0-9.879Zm-127.014.152c0-.608.184-.76.919-.76h16.543c.735,0,.919.152.919.76v9.578c0,.76-.368.76-1.1.76H263.4c-.735,0-.919-.152-.919-.76.184-3.192.184-6.385.184-9.578ZM220.39,8.362c0-.608.184-.76.919-.76h16.543c.735,0,.919.152.919.76V18.1c0,.608-.184.76-.919.76H221.309c-.735,0-.919-.152-.919-.76,0-3.2,0-6.541,0-9.733ZM136.572,7.6h16.359c.735,0,.919.152.919.76v9.578c0,.76-.368.76-1.1.76H136.2c-.735,0-.919-.152-.919-.76V8.362A1.181,1.181,0,0,1,136.572,7.6Zm-43.38.912c0-.608.184-.76.919-.76h16.36c.735,0,1.1.152,1.1.76v9.578c0,.608-.184.76-.919.76H94.112c-.735,0-.919-.152-.919-.76a83.266,83.266,0,0,0,0-9.578ZM51.837,7.6H68.2c.735,0,1.1.152,1.1.912v9.578c0,.608-.368.76-.919.76H51.837c-.735,0-.919-.152-.919-.76V8.514c0-.76.182-.912.919-.912ZM8.455,8.514c0-.76.368-.912,1.286-.912H25.918c.735,0,1.1.152,1.1.912v9.427c0,.608-.184.912-.919.912H9.926c-.735,0-1.1-.152-1.1-.912C8.639,14.9,8.639,11.707,8.455,8.514Zm18.381,115.4c0,.608-.184.76-1.1.76H9.374c-.735,0-.919-.152-.919-.76v-9.733c0-.608.184-.76.919-.76H25.734c.735,0,1.1.152,1.1.76Zm42.46,0c0,.608-.184.76-.919.76H51.837c-.735,0-.919-.152-.919-.76v-9.578c0-.608.184-.912,1.1-.76H68.38c.735,0,1.1.152,1.1.912-.185,3.041-.185,6.233-.185,9.426ZM13.234,106.884c-1.471,0-1.652-.306-1.652-1.368V26.759c0-1.065.368-1.216,1.471-1.216H149.074c1.286,0,1.471.306,1.471,1.216V105.82c0,.912-.368,1.216-1.471,1.216Q81.245,106.808,13.234,106.884Zm98.338,17.029c0,.608-.184.76-.919.76H94.479c-.735,0-1.1,0-1.1-.912v-9.579c0-.608.184-.76.919-.76h16.359c.735,0,.919,0,.919.76Zm41.355.76H136.389c-.735,0-.919-.152-.919-.76v-9.733c0-.608.368-.76.919-.76h16.358c.735,0,1.1.152,1.1.76v9.579c.184.763-.182.915-.919.915Zm25-116.159c0-.608.184-.912,1.1-.912h16.359c.735,0,.919.152.919.76V18.1c0,.608-.184.76-.919.76H178.849c-.735,0-.919-.152-.919-.76Zm18.381,115.4c0,.608-.184.76-.919.76H178.849c-.735,0-.919-.152-.919-.76v-9.733c0-.608.184-.76.919-.76h16.543c.735,0,1.1.152,1.1.76C196.311,117.527,196.311,120.72,196.311,123.913Zm42.46,0c0,.608-.184.76-.919.76H221.493c-.735,0-1.1-.152-1.1-.76v-9.578c0-.76.184-.76,1.1-.76h16.359c.735,0,.919.152.919.76a83.263,83.263,0,0,0,0,9.578Zm-56.43-17.029c-1.1,0-1.287-.306-1.287-1.065V26.455c0-.912.368-1.065,1.287-1.065H318.731c1.1,0,1.471.152,1.471,1.216v79.211c0,.76-.184,1.065-1.286,1.065Zm97.6,17.789H263.586c-.735,0-.919-.152-.919-.76v-9.733c0-.608.368-.76.919-.76h16.359c.735,0,1.1.152,1.1.76v9.579c0,.763-.184.915-1.1.915Zm43.38-.76c0,.608-.184.76-.919.76H305.863c-.735,0-.919-.306-.919-.76v-9.578c0-.608.184-.912.919-.912h16.543c.736,0,.919.152.919.76Zm0-105.82c0,.608-.184.76-.919.76H305.863c-.735,0-.919-.152-.919-.76V8.359c0-.76.368-.76,1.1-.76h16.359c.736,0,1.1.152,1.1.76-.184,3.348-.184,6.541-.184,9.733ZM347.4,8.514c0-.76.368-.912,1.1-.912h16.176c.919,0,1.1.152,1.1.912v9.275c0,.912-.368.912-1.286.912H348.323c-.735,0-1.1-.152-1.1-.76.184-3.041.184-6.233.184-9.426Zm18.381,115.4c0,.608-.184.76-.919.76H348.323c-.735,0-.919-.152-.919-.76v-9.733c0-.608.368-.76.919-.76h16.543c.735,0,1.1.152,1.1.76-.184,3.348-.184,6.541-.184,9.734Zm41.173.76H390.6c-.735,0-1.1-.152-1.1-.76v-9.578c0-.76.368-.76,1.1-.76h16.359c.735,0,1.1.152,1.1.76v9.579c0,.76-.184.76-1.1.76Zm-55.143-17.789c-.919,0-1.286-.152-1.286-1.065V26.3c0-.912.368-1.065,1.286-1.065H488.2c1.1,0,1.471.152,1.471,1.216v79.211c0,.912-.184,1.216-1.471,1.216Zm97.6,17.789h-16.54c-.735,0-1.1-.152-1.1-.912v-9.578c0-.608.184-.76.919-.76h16.543c.735,0,.919.152.919.76v9.579c.368.76.183.912-.736.912Zm43.38-.76c0,.608-.184.76-.919.76h-16.54c-.735,0-.919-.152-.919-.76v-9.733c0-.76.368-.76.919-.76h16.541c.735,0,.919.152.919.76Z"/>
          </g>
        </g>
        <g id="Group_8" data-name="Group 8" class="cls-12" transform="translate(-0.956)">
          <g id="Group_301" data-name="Group 301" transform="translate(1017.232 318)">
            <rect id="Rectangle_288-8" data-name="Rectangle 288" class="cls-7" width="141.92" height="82.92" transform="translate(0 0)"/>
            <g id="Group_295-4" data-name="Group 295" transform="translate(36.391 7.19)">
              <path id="Path_3327-4" data-name="Path 3327" class="cls-8" d="M43.6,1.666A34.245,34.245,0,1,0,67.828,43.6h0A34.184,34.184,0,0,0,43.6,1.666Z" transform="translate(-0.499 -0.499)"/>
              <g id="Group_294-4" data-name="Group 294" transform="translate(19.783 14.032)">
                <g id="Group_292-4" data-name="Group 292" transform="translate(11.87 36.907)">
                  <path id="Path_3328-4" data-name="Path 3328" d="M16.211,29.022a2.411,2.411,0,1,1,2.411-2.411A2.338,2.338,0,0,1,16.211,29.022Z" transform="translate(-13.8 -24.2)"/>
                </g>
                <g id="Group_293-4" data-name="Group 293">
                  <path id="Path_3329-4" data-name="Path 3329" d="M21.681,39.353a2.255,2.255,0,0,1-2.226-2.226V36.2a8.989,8.989,0,0,1,5.935-8.346,9.94,9.94,0,0,0,6.12-9.273,2.75,2.75,0,0,0-.185-1.3,9.9,9.9,0,0,0-9.459-8.16h-.185A9.524,9.524,0,0,0,14.819,11.9a9.705,9.705,0,0,0-2.967,6.862,2.255,2.255,0,0,1-2.226,2.226A2.428,2.428,0,0,1,7.4,18.581a13.859,13.859,0,0,1,4.266-10.2A14.668,14.668,0,0,1,21.681,4.3h.185a14.592,14.592,0,0,1,14.1,14.1,14.508,14.508,0,0,1-9.088,13.539,4.523,4.523,0,0,0-2.967,4.08v.927A2.19,2.19,0,0,1,21.681,39.353Z" transform="translate(-7.4 -4.3)"/>
                </g>
              </g>
            </g>
          </g>
        </g>
      </g>
    </g>
    <path id="Path_3331" data-name="Path 3331" class="cls-13" d="M38.476,163.534H.5V.5H38.476Z" transform="translate(409.878 277.466)"/>
    <path id="Path_3332" data-name="Path 3332" class="cls-13" d="M38.476,163.534H.5V.5H38.476Z" transform="translate(1068.855 441.5) rotate(180)"/>
  </g>
</svg>
