<svg xmlns="http://www.w3.org/2000/svg" viewBox="0 0 34.5 34.5"><defs><style>.cls-1,.cls-3{fill:none;}.cls-1,.cls-2,.cls-3{stroke:#28b5c1;stroke-miterlimit:10;}.cls-1{stroke-width:0.72px;}.cls-2{fill:#28b5c1;stroke-width:0.36px;}.cls-3{stroke-width:2.5px;}</style></defs><title>sci-fi</title><g id="Layer_2" data-name="Layer 2"><g id="SCI_FI" data-name="SCI FI"><path class="cls-1" d="M23.58,10.57c3.41,5-1.92,15.23-6.15,15.24S7.86,15.7,11.23,10.63a7.7,7.7,0,0,1,12.35-.06Z"/><path class="cls-2" d="M16.71,20.09a4.55,4.55,0,0,1-3.61-.9,4.46,4.46,0,0,1-1.56-2.91,4.46,4.46,0,0,1,3.18.62A4.58,4.58,0,0,1,16.71,20.09Z"/><path class="cls-2" d="M18.2,20.08a4.57,4.57,0,0,1,2-3.17,4.43,4.43,0,0,1,3.24-.58,4.56,4.56,0,0,1-1.57,2.84A4.61,4.61,0,0,1,18.2,20.08Z"/><circle class="cls-3" cx="17.25" cy="17.25" r="16"/></g></g></svg>