<svg xmlns="http://www.w3.org/2000/svg" viewBox="0 0 34.5 34.5"><defs><style>.cls-1,.cls-2{fill:none;stroke:#28b5c1;stroke-miterlimit:10;}.cls-1{stroke-width:0.89px;}.cls-2{stroke-width:2.5px;}</style></defs><title>suspense</title><g id="Layer_2" data-name="Layer 2"><g id="SUSPENSE"><path class="cls-1" d="M18.66,14l2.51,1.89c-.25.45-.6,1.06-1.07,1.76a26.29,26.29,0,0,1-3,3.67,18.82,18.82,0,0,1-3.33,3.1,16.57,16.57,0,0,1-2.34,1.32c-.42.19-.8.34-1.08.44,1.92-3.21,4.13-6.57,6.68-10,1.19-1.6,2.38-3.13,3.56-4.57L23,8.46l1-.56a.61.61,0,0,1,.39,0,1,1,0,0,1,.49,1.06.73.73,0,0,1,0,.44c-.13.33-.56.36-.88.52-.64.33-.65,1.08-1.05,1.95a5.05,5.05,0,0,1-1.57,1.94l-1.06.93-.55-.12Z"/><circle class="cls-2" cx="17.25" cy="17.25" r="16"/></g></g></svg>