<svg xmlns="http://www.w3.org/2000/svg" viewBox="0 0 34.5 34.5"><defs><style>.cls-1{fill:#28b5c1;}.cls-2,.cls-3,.cls-4{fill:none;stroke:#28b5c1;stroke-miterlimit:10;}.cls-3{stroke-width:0.45px;}.cls-4{stroke-width:2.5px;}</style></defs><title>terror</title><g id="Layer_2" data-name="Layer 2"><g id="TERROR"><path class="cls-1" d="M16.88,15h0a.34.34,0,0,0,0-.68h0a.34.34,0,0,0,0,.68Z"/><path class="cls-1" d="M18.62,14.93a.34.34,0,0,0,0-.68.34.34,0,0,0,0,.68Z"/><path class="cls-1" d="M16.88,13.22a.34.34,0,0,0,0-.68.34.34,0,0,0,0,.68Z"/><path class="cls-1" d="M18.62,13.26a.34.34,0,0,0,0-.68.34.34,0,0,0,0,.68Z"/><path class="cls-1" d="M16.91,21.4a.34.34,0,0,0,0-.68.34.34,0,0,0,0,.68Z"/><path class="cls-1" d="M19,21.1v0a.34.34,0,0,0-.68,0v0a.34.34,0,0,0,.68,0Z"/><path class="cls-1" d="M15.28,22.27a.34.34,0,0,0,0-.68.34.34,0,0,0,0,.68Z"/><path class="cls-1" d="M17,23a.34.34,0,0,0,0-.68A.34.34,0,0,0,17,23Z"/><path class="cls-1" d="M18.66,23.11a.34.34,0,0,0,0-.68.34.34,0,0,0,0,.68Z"/><path class="cls-1" d="M20.33,22.31a.34.34,0,0,0,0-.68.34.34,0,0,0,0,.68Z"/><path class="cls-1" d="M17.14,25a.34.34,0,0,0,0-.68.34.34,0,0,0,0,.68Z"/><path class="cls-1" d="M18.89,25a.34.34,0,0,0,0-.68.34.34,0,0,0,0,.68Z"/><path class="cls-2" d="M25.2,15.43c.21,1.94-.43,3.56-1.49,6.21C22.78,24,22,24.73,21.42,25.17a5.94,5.94,0,0,1-3.31,1.12,6.32,6.32,0,0,1-3.78-1.12c-1.68-1.18-2.28-2.91-3.09-5.24a11.75,11.75,0,0,1-.91-3.63c0-3.5,3-8.58,7.56-8.5C22.05,7.86,24.84,12.18,25.2,15.43Z"/><path class="cls-3" d="M16.51,18a2,2,0,0,0,.26-1.41l-1.17-.55-1.27-.65a1.83,1.83,0,0,0-1.2,1.82,1.84,1.84,0,0,0,3.38.79Z"/><path class="cls-3" d="M19,18a2,2,0,0,1-.19-1.42L20,16l1.26-.6a1.78,1.78,0,0,1-.69,3.43A1.77,1.77,0,0,1,19,18Z"/><circle class="cls-4" cx="17.25" cy="17.25" r="16"/></g></g></svg>